<svg width="756" height="110" viewBox="0 0 756 110" fill="none" xmlns="http://www.w3.org/2000/svg">
<path d="M213.908 41.3276C213.908 31.3675 210.923 28.8396 200.155 28.8396H158.121V55.2972H200.025C210.923 55.2972 213.908 52.921 213.908 42.9651V41.3276ZM204.047 2.97696C226.233 2.97696 241.93 16.0546 241.93 41.0307V42.5163C241.93 69.2708 224.286 80.1228 206.643 80.1228H158.121V107.029H130.875V2.97696H204.047Z" fill="#393738"/>
<path d="M343.848 39.3945C343.848 31.5138 340.604 28.8395 330.097 28.8395H286.246V52.3259H329.837C340.604 52.3259 343.848 49.6514 343.848 41.3275V39.3945ZM336.713 2.97684C360.198 2.97684 371.871 13.9739 371.871 35.8242V38.0553C371.871 50.3929 366.422 58.7169 355.526 63.0273V63.3242C367.463 67.6387 370.574 74.7698 372.003 90.381C372.649 97.813 374.596 103.162 376.025 107.029H346.833C345.923 105.543 345.663 103.01 345.536 99.5954C344.885 84.5795 339.44 77.1515 326.593 77.1515H286.246V107.029H259V2.97684H336.713Z" fill="#393738"/>
<path d="M637.934 2.97696L585.522 107.029H555.293L503.009 2.97696H534.794L568.268 81.7548L568.782 83.3907H572.157L572.676 81.7548L606.8 2.97696H637.934Z" fill="#393738"/>
<path d="M471.628 65.4091L456.451 28.8396L456.06 27.6507H449.832L449.445 28.8396L434.264 65.4091H471.628ZM492.127 107.029L483.565 89.4891H422.327L413.765 107.029H384.183L437.767 2.97696H467.997L521.705 107.029H492.127Z" fill="#393738"/>
<path d="M705.922 65.4091L690.741 28.8396L690.351 27.6507H684.123L683.735 28.8396L668.556 65.4091H705.922ZM726.416 107.029L717.855 89.4891H656.619L648.057 107.029H618.473L672.059 2.97696H702.288L756 107.029H726.416Z" fill="#393738"/>
<path d="M81.2542 45.1904C76.0111 44.2406 64.7778 44.1535 54.3518 50.3583L73.6035 35.3366C60.1383 39.248 49.4147 40.2808 42.2943 38.7994C36.4558 37.6065 33.9916 34.7871 33.9916 31.8105C33.9916 27.0569 41.905 25.1225 53.8409 25.1225C65.0309 25.1225 74.8603 26.0531 83.4835 27.6023C89.6557 28.7178 95.2302 30.1399 100.158 31.8105L107.423 8.92325C95.7472 2.5281 78.3609 0 59.1611 0C20.4976 0 5.44907 13.38 5.44907 33.3015C5.44907 47.4216 13.0553 54.1136 23.8488 58.2295C26.0661 59.0716 36.5414 61.8868 45.3912 57.274L26.1793 72.2665C40.8928 67.3956 54.0482 67.0601 65.3864 68.8273C79.2696 70.4648 84.5886 73.4305 84.5886 76.704C84.5886 82.6506 75.3773 85.028 61.4941 85.028C44.2561 85.028 30.838 81.8414 20.588 76.6888C17.7248 75.2516 15.0942 73.6694 12.7143 71.9448L0 92.757C16.2173 105.241 36.8451 110 58.3827 110C97.821 110 113.132 95.5818 113.132 74.0297C113.132 57.0793 101.232 48.7553 81.2542 45.1904Z" fill="#393738"/>
</svg>
