<svg width="236" height="236" viewBox="0 0 236 236" fill="none" xmlns="http://www.w3.org/2000/svg">
<path d="M50.3433 40.2824L42.3993 31.6133L39.3164 34.4587L40.9655 36.6304C42.3911 38.4834 43.4617 40.0654 44.1818 41.3838C44.9029 42.7063 45.3198 43.8492 45.4335 44.8116L50.3433 40.2824ZM41.5003 48.4407L41.9617 48.0162C42.3072 47.6725 42.5255 47.2801 42.6165 46.8338C42.7065 46.3864 42.6104 45.7967 42.3341 45.0752C42.0579 44.3506 41.5717 43.4496 40.8755 42.3689C40.1813 41.2893 39.2296 39.9523 38.0192 38.3588L34.955 34.3455L42.8917 27.0249L52.8893 37.9342L54.828 36.1435L59.8857 41.6631L57.5053 43.8596L54.502 40.5824L45.9539 48.4667L48.9591 51.7481L46.5601 53.9603L41.5003 48.4407Z" fill="#393738"/>
<path d="M59.7896 25.8332C60.1713 26.5038 60.6389 27.0976 61.1975 27.6062C61.7572 28.1191 62.3645 28.5031 63.0224 28.7668C63.6783 29.0274 64.3714 29.1447 65.0956 29.1187C65.8208 29.0928 66.5398 28.8737 67.2515 28.4668C67.9777 28.0526 68.5374 27.5367 68.9274 26.918C69.3185 26.3024 69.5667 25.6359 69.6692 24.9186C69.7726 24.2044 69.7498 23.4829 69.5936 22.7469C69.4395 22.0182 69.1798 21.3331 68.8167 20.6884C68.4391 20.0178 67.9643 19.4281 67.3984 18.9195C66.8326 18.414 66.2201 18.0299 65.5632 17.7693C64.9042 17.5056 64.2162 17.3925 63.4962 17.4288C62.7752 17.462 62.0665 17.6779 61.3693 18.0735C60.641 18.4907 60.0792 19.0077 59.6809 19.6295C59.2837 20.2524 59.0354 20.9157 58.933 21.6185C58.8316 22.3254 58.8606 23.0428 59.0137 23.7715C59.1679 24.5044 59.4275 25.1927 59.7896 25.8332ZM68.7391 31.1471C67.6074 31.7959 66.4529 32.1582 65.2787 32.2423C64.1035 32.3233 62.9759 32.1842 61.8979 31.825C60.8199 31.4658 59.8299 30.9136 58.9299 30.1734C58.0309 29.4333 57.3005 28.5654 56.7388 27.573C56.1512 26.537 55.7819 25.4376 55.6308 24.2698C55.4787 23.102 55.5357 21.9632 55.7974 20.8462C56.0612 19.7323 56.5361 18.6921 57.2219 17.733C57.9109 16.7738 58.7985 15.9827 59.8889 15.3599C61.0082 14.7225 62.1586 14.3674 63.3421 14.3021C64.5245 14.2356 65.6542 14.3892 66.7291 14.7588C67.806 15.1294 68.7919 15.6858 69.693 16.4291C70.593 17.1692 71.3182 18.0257 71.8716 19.0036C72.4592 20.0406 72.8296 21.1348 72.9837 22.2923C73.1379 23.4497 73.0861 24.5771 72.8265 25.6795C72.5679 26.7861 72.094 27.8149 71.4072 28.7782C70.7213 29.7374 69.8316 30.5284 68.7391 31.1471Z" fill="#393738"/>
<path d="M91.1873 16.1029C91.0952 15.7988 90.9545 15.5206 90.7662 15.2714C90.5749 15.0222 90.3617 14.8209 90.1238 14.6673C89.8838 14.5136 89.6241 14.4108 89.3489 14.3631C89.0728 14.3164 88.7903 14.3382 88.5027 14.4254L83.4171 15.9825L84.7847 20.4795L89.7017 18.9774C90.0048 18.8861 90.2727 18.7438 90.5024 18.5497C90.7321 18.3556 90.9131 18.1324 91.0445 17.8718C91.1738 17.6123 91.2535 17.3258 91.2835 17.0185C91.3124 16.7144 91.2814 16.4071 91.1873 16.1029ZM81.3118 9.05014L82.6205 13.3561L87.0337 12.0056C87.5934 11.8364 88.0123 11.5 88.2855 10.9945C88.5607 10.4889 88.5969 9.8993 88.391 9.22556C88.1913 8.56641 87.8541 8.10134 87.3761 7.82623C86.8982 7.54804 86.3964 7.49299 85.8699 7.65494L81.3118 9.05014ZM94.7118 15.7074C94.9322 16.433 94.9808 17.1099 94.8577 17.7441C94.7367 18.3774 94.4791 18.9556 94.0881 19.4757C93.696 19.9999 93.1973 20.4608 92.5921 20.8563C91.9849 21.2519 91.3083 21.5633 90.5573 21.7937L82.3298 24.3101L77.1376 7.21894L86.2547 4.43166C86.8464 4.25211 87.4206 4.21573 87.9782 4.32576C88.5368 4.4358 89.0437 4.64447 89.5051 4.94865C89.9655 5.2559 90.3659 5.64418 90.7093 6.10925C91.0518 6.57431 91.3021 7.07257 91.4645 7.60303C91.7159 8.43453 91.7459 9.28061 91.5535 10.137C91.358 10.9976 90.9141 11.7232 90.2231 12.3201C91.2855 12.3129 92.2145 12.5952 93.009 13.1662C93.8025 13.7371 94.3715 14.5873 94.7118 15.7074Z" fill="#393738"/>
<path d="M115.183 14.7357L115.461 17.7679L103.15 18.9067L101.517 1.11695L113.604 0L113.881 3.03227L105.242 3.83052L105.635 8.11475L113.102 7.42649L113.359 10.2314L105.894 10.9197L106.318 15.5568L115.183 14.7357Z" fill="#393738"/>
<path d="M126.821 9.26561L130.812 9.68289C131.444 9.74828 131.998 9.54692 132.477 9.07459C132.953 8.60226 133.24 7.9254 133.331 7.03891C133.378 6.58837 133.352 6.17829 133.257 5.80147C133.161 5.4309 133.018 5.10907 132.829 4.834C132.637 4.56302 132.405 4.34714 132.126 4.19346C131.848 4.0357 131.561 3.94433 131.261 3.91113L127.419 3.51251L126.821 9.26561ZM122.445 17.89L124.292 0.121024L131.8 0.907925C132.614 0.993037 133.349 1.24116 134.004 1.65537C134.658 2.07266 135.205 2.58545 135.646 3.19381C136.087 3.80523 136.411 4.47897 136.621 5.2191C136.829 5.95822 136.897 6.68695 136.822 7.40534C136.745 8.15586 136.535 8.87006 136.196 9.55106C135.856 10.2321 135.416 10.8258 134.876 11.3231C134.337 11.8255 133.708 12.2065 132.993 12.466C132.275 12.7297 131.51 12.8179 130.697 12.7338L126.507 12.2937L125.886 18.2482L122.445 17.89Z" fill="#393738"/>
<path d="M146.998 16.6338L159.518 7.56916L162.021 8.39753L156.465 25.3714L153.202 24.2949L157.011 12.6527L144.695 21.4931L142.076 20.6294L147.629 3.65449L150.894 4.73103L146.998 16.6338Z" fill="#393738"/>
<path d="M175.894 32.4843L174.365 35.1138L163.689 28.8552L172.673 13.4302L183.151 19.5757L181.621 22.2041L174.128 17.8099L171.966 21.5272L178.44 25.3215L177.022 27.7569L170.549 23.9585L168.207 27.9801L175.894 32.4843Z" fill="#393738"/>
<path d="M224.335 66.8285L208.83 75.6107L207.141 72.6075L213.76 68.8611L209.79 61.8041L203.173 65.5506L201.472 62.5297L216.978 53.7475L218.678 56.7725L212.409 60.3217L216.38 67.3786L222.647 63.8263L224.335 66.8285Z" fill="#393738"/>
<path d="M221.059 89.6328L227.04 85.2313L219.601 84.8171L221.059 89.6328ZM230.363 82.6164L231.251 85.5531L216.18 97.2431L215.145 93.8257L218.913 90.944L217.108 84.9708L212.386 84.6998L211.353 81.2793L230.363 82.6164Z" fill="#393738"/>
<path d="M221.016 113.626L232.721 112.765L232.413 108.572L229.694 108.52C227.363 108.491 225.458 108.348 223.98 108.096C222.503 107.843 221.352 107.462 220.528 106.95L221.016 113.626ZM220.137 101.607L220.183 102.233C220.235 102.716 220.407 103.134 220.701 103.481C220.994 103.829 221.511 104.119 222.249 104.353C222.986 104.584 223.992 104.759 225.266 104.884C226.541 105.013 228.178 105.092 230.176 105.129L235.21 105.214L236 116.006L221.269 117.09L221.461 119.723L214.01 120.272L213.772 117.035L218.199 116.709L217.348 105.092L212.923 105.418L212.683 102.156L220.137 101.607Z" fill="#393738"/>
<path d="M219.172 139.182L216.166 138.765L217.866 126.474L235.5 128.931L233.833 140.994L230.826 140.577L232.021 131.953L227.773 131.363L226.742 138.816L223.959 138.427L224.991 130.975L220.395 130.334L219.172 139.182Z" fill="#393738"/>
<path d="M221.857 152.916L232.008 150.664L230.57 154.286L221.987 156.058L221.311 157.764L228.112 160.482L226.785 163.826L219.983 161.108L219.315 162.789L224.336 169.996L222.89 173.644L217.062 165.005L206.135 167.572L207.573 163.95L216.279 162.009L217.095 159.951L210.245 157.215L211.573 153.872L218.42 156.607L219.238 154.553L214.253 147.115L215.681 143.516L221.857 152.916Z" fill="#393738"/>
<path d="M208.121 194.911L193.83 184.255L195.879 181.49L201.978 186.039L206.793 179.534L200.695 174.986L202.759 172.199L217.051 182.856L214.987 185.643L209.208 181.336L204.394 187.84L210.169 192.147L208.121 194.911Z" fill="#393738"/>
<path d="M192.328 198.43C191.834 197.836 191.264 197.342 190.62 196.943C189.98 196.544 189.31 196.276 188.617 196.141C187.922 196.002 187.222 196.013 186.515 196.174C185.807 196.335 185.141 196.683 184.513 197.21C183.876 197.752 183.42 198.361 183.149 199.042C182.88 199.719 182.759 200.422 182.786 201.144C182.815 201.868 182.971 202.575 183.256 203.268C183.543 203.956 183.922 204.582 184.396 205.147C184.893 205.736 185.465 206.23 186.115 206.622C186.763 207.017 187.435 207.281 188.129 207.42C188.823 207.556 189.521 207.542 190.224 207.372C190.925 207.208 191.584 206.864 192.198 206.344C192.836 205.802 193.294 205.19 193.571 204.505C193.847 203.821 193.972 203.124 193.942 202.414C193.914 201.7 193.756 201.001 193.472 200.312C193.186 199.62 192.805 198.99 192.328 198.43ZM182.559 194.848C183.555 194.006 184.623 193.435 185.764 193.138C186.906 192.841 188.038 192.772 189.162 192.929C190.288 193.08 191.362 193.438 192.382 194.003C193.402 194.566 194.279 195.284 195.012 196.156C195.778 197.064 196.342 198.082 196.704 199.203C197.067 200.32 197.219 201.451 197.168 202.597C197.112 203.74 196.833 204.846 196.335 205.919C195.835 206.988 195.106 207.93 194.148 208.743C193.164 209.574 192.097 210.134 190.946 210.416C189.796 210.698 188.658 210.757 187.533 210.591C186.408 210.423 185.336 210.061 184.316 209.497C183.295 208.933 182.424 208.223 181.701 207.365C180.935 206.454 180.37 205.447 180.007 204.337C179.644 203.227 179.49 202.11 179.543 200.979C179.596 199.843 179.874 198.742 180.373 197.671C180.872 196.602 181.601 195.662 182.559 194.848Z" fill="#393738"/>
<path d="M175.39 211.703C175.893 212.671 176.216 213.718 176.361 214.845C176.505 215.97 176.438 217.079 176.158 218.175C175.879 219.266 175.379 220.298 174.654 221.265C173.932 222.228 172.956 223.034 171.726 223.678C170.275 224.44 168.853 224.781 167.461 224.697C166.068 224.613 164.845 224.195 163.792 223.441L165.298 220.577C165.74 220.917 166.187 221.159 166.641 221.31C167.097 221.456 167.542 221.533 167.974 221.533C168.409 221.529 168.832 221.474 169.245 221.36C169.66 221.25 170.041 221.101 170.397 220.914C171.169 220.511 171.757 220.002 172.164 219.39C172.572 218.779 172.835 218.124 172.953 217.427C173.072 216.732 173.064 216.017 172.925 215.284C172.789 214.548 172.559 213.875 172.233 213.249C171.869 212.549 171.407 211.935 170.848 211.407C170.29 210.876 169.678 210.473 169.015 210.195C168.352 209.92 167.658 209.781 166.932 209.785C166.208 209.785 165.502 209.964 164.822 210.322C164.465 210.509 164.12 210.748 163.78 211.041C163.442 211.329 163.148 211.664 162.9 212.04C162.654 212.417 162.461 212.835 162.323 213.297C162.186 213.754 162.141 214.248 162.187 214.773L158.921 214.641C158.863 213.912 158.95 213.201 159.181 212.501C159.411 211.806 159.736 211.147 160.161 210.524C160.583 209.905 161.083 209.341 161.666 208.829C162.246 208.313 162.857 207.891 163.492 207.554C164.618 206.964 165.772 206.661 166.953 206.65C168.134 206.631 169.261 206.832 170.335 207.242C171.409 207.657 172.387 208.25 173.272 209.027C174.159 209.802 174.863 210.693 175.39 211.703Z" fill="#393738"/>
<path d="M142.383 231.157L147.854 229.591L143.797 215.341L147.1 214.392L151.158 228.642L156.633 227.075L157.464 230.001L143.215 234.088L142.383 231.157Z" fill="#393738"/>
<path d="M128.713 221.124L125.514 221.381C124.547 221.457 123.843 221.776 123.401 222.332C122.961 222.89 122.773 223.622 122.846 224.523C122.913 225.376 123.22 226.054 123.761 226.56C124.307 227.061 125.043 227.277 125.977 227.2L129.177 226.944L128.713 221.124ZM133.321 235.726L129.897 236L129.396 229.727L125.998 230.002C125.099 230.075 124.26 230.016 123.481 229.822C122.703 229.635 122.019 229.32 121.432 228.878C120.842 228.438 120.37 227.874 120.012 227.186C119.658 226.5 119.443 225.698 119.369 224.779C119.295 223.842 119.378 223 119.62 222.256C119.863 221.512 120.236 220.875 120.74 220.34C121.241 219.803 121.853 219.374 122.574 219.055C123.296 218.737 124.088 218.542 124.954 218.473L131.904 217.916L133.321 235.726Z" fill="#393738"/>
<path d="M73.7173 219.951L72.4458 219.354L64.4398 223.712L60.8956 222.05L70.3292 216.945L67.9085 205.618L71.4062 207.258L73.4648 216.388L75.0342 217.124L78.1533 210.422L81.2682 211.88L73.7297 228.067L70.6179 226.609L73.7173 219.951Z" fill="#393738"/>
<path d="M51.7638 202.557L49.523 209.651L55.7704 205.582L51.7638 202.557ZM48.3778 213.731L45.9333 211.889L51.2237 193.527L54.0687 195.672L52.7248 200.229L57.6946 203.982L61.6641 201.404L64.51 203.55L48.3778 213.731Z" fill="#393738"/>
<path d="M28.9224 195.749L26.6362 193.207L39.8448 181.229L42.1321 183.766L36.9772 188.443C37.2213 188.56 37.4623 188.692 37.7044 188.835C37.9454 188.977 38.1937 189.146 38.4513 189.344C38.7068 189.542 38.9738 189.777 39.25 190.043C39.5262 190.314 39.8293 190.629 40.1521 190.988C40.8596 191.776 41.3366 192.537 41.589 193.281C41.8424 194.024 41.9128 194.746 41.8021 195.449C41.6893 196.148 41.4214 196.822 40.9973 197.463C40.5742 198.107 40.0414 198.723 39.3948 199.305L35.3954 202.934L33.1081 200.396L36.3833 197.426C36.8923 196.965 37.2958 196.525 37.5958 196.108C37.8937 195.691 38.0747 195.276 38.1368 194.871C38.1989 194.464 38.1451 194.053 37.9765 193.639C37.8089 193.229 37.5161 192.793 37.1013 192.332C36.642 191.824 36.1971 191.42 35.7688 191.134C35.3395 190.846 34.9619 190.655 34.634 190.568L28.9224 195.749Z" fill="#393738"/>
<path d="M26.1556 165.638L28.7605 164.075L35.1 174.723L19.813 183.887L13.5904 173.431L16.1953 171.868L20.6448 179.342L24.3256 177.137L20.4803 170.677L22.8927 169.234L26.736 175.691L30.721 173.306L26.1556 165.638Z" fill="#393738"/>
<path d="M17.7917 162.163C16.7675 162.525 15.6885 162.701 14.5578 162.683C13.4261 162.668 12.3399 162.445 11.3012 162.012C10.2646 161.58 9.31698 160.94 8.46662 160.082C7.61521 159.229 6.95828 158.145 6.49481 156.831C5.94759 155.281 5.8141 153.824 6.09239 152.45C6.37173 151.081 6.95622 149.924 7.849 148.983L10.4612 150.887C10.067 151.275 9.7639 151.685 9.55183 152.117C9.34181 152.55 9.2042 152.978 9.14317 153.41C9.08319 153.838 9.07906 154.271 9.1318 154.696C9.18454 155.12 9.27766 155.523 9.41321 155.904C9.70286 156.724 10.1198 157.38 10.666 157.874C11.2122 158.365 11.8205 158.72 12.4888 158.936C13.1612 159.149 13.8647 159.24 14.6075 159.207C15.3503 159.178 16.0537 159.042 16.7148 158.809C17.4544 158.545 18.1279 158.174 18.729 157.692C19.3311 157.212 19.8152 156.662 20.1804 156.04C20.5477 155.42 20.7825 154.751 20.8818 154.032C20.9832 153.311 20.9046 152.586 20.647 151.861C20.5146 151.481 20.3273 151.1 20.0863 150.722C19.8463 150.345 19.5587 150.008 19.2235 149.708C18.8873 149.411 18.5045 149.158 18.0679 148.957C17.6324 148.756 17.1544 148.643 16.6289 148.612L17.2196 145.386C17.9459 145.434 18.6369 145.621 19.2928 145.947C19.9497 146.277 20.5528 146.69 21.1042 147.2C21.6556 147.704 22.1429 148.283 22.5681 148.935C22.9932 149.583 23.3253 150.249 23.5643 150.927C23.9884 152.132 24.125 153.318 23.9729 154.494C23.8188 155.669 23.4639 156.761 22.9043 157.768C22.3477 158.778 21.6236 159.665 20.7339 160.437C19.8442 161.207 18.8645 161.782 17.7917 162.163Z" fill="#393738"/>
<path d="M3.27632 126.608L4.04803 132.266L18.6812 130.263L19.1478 133.679L4.51256 135.683L5.28221 141.345L2.27493 141.755L0.271037 127.018L3.27632 126.608Z" fill="#393738"/>
<path d="M13.279 107.189C12.9624 107.167 12.6552 107.2 12.3541 107.291C12.0562 107.38 11.7903 107.507 11.5617 107.675C11.3331 107.848 11.1469 108.049 11.0041 108.294C10.8613 108.536 10.7806 108.807 10.7589 109.108L10.3937 114.432L15.0728 114.754L15.4256 109.609C15.4494 109.291 15.4101 108.991 15.3118 108.705C15.2135 108.419 15.0667 108.171 14.8721 107.954C14.6787 107.742 14.4439 107.565 14.1676 107.426C13.8925 107.291 13.5976 107.21 13.279 107.189ZM3.18834 113.934L7.66782 114.243L7.98437 109.624C8.02263 109.039 7.85711 108.526 7.48571 108.09C7.1133 107.651 6.57744 107.409 5.87706 107.357C5.19428 107.313 4.63876 107.464 4.2125 107.812C3.7863 108.162 3.55356 108.613 3.51731 109.163L3.18834 113.934ZM14.1687 103.746C14.9187 103.797 15.5673 103.991 16.1146 104.336C16.6608 104.672 17.1087 105.123 17.4564 105.676C17.8029 106.229 18.0522 106.863 18.2043 107.57C18.3585 108.277 18.4071 109.023 18.3533 109.811L17.7616 118.421L0 117.194L0.653819 107.654C0.697259 107.035 0.868955 106.482 1.17002 106.002C1.47109 105.515 1.84762 105.112 2.29455 104.79C2.74559 104.468 3.24837 104.233 3.80284 104.075C4.35735 103.922 4.91082 103.864 5.46116 103.9C6.32911 103.959 7.12778 104.237 7.85606 104.72C8.58439 105.208 9.10371 105.885 9.41302 106.745C9.78337 105.746 10.3761 104.976 11.1934 104.435C12.0086 103.893 13.0017 103.665 14.1687 103.746Z" fill="#393738"/>
<path d="M12.1597 92.1287C12.8963 92.3488 13.6422 92.4474 14.3994 92.4287C15.1546 92.4069 15.8591 92.2636 16.515 91.9969C17.1688 91.7259 17.7492 91.3335 18.254 90.8103C18.7568 90.2861 19.1251 89.631 19.3599 88.84C19.5968 88.0375 19.6444 87.2766 19.4986 86.5583C19.3527 85.841 19.0723 85.189 18.6533 84.5994C18.2354 84.0098 17.7171 83.5074 17.1005 83.0869C16.4829 82.6696 15.8219 82.3509 15.1174 82.1422C14.3808 81.9222 13.6308 81.8267 12.8756 81.8526C12.1163 81.8817 11.4076 82.0281 10.7548 82.299C10.1 82.5668 9.52378 82.9623 9.02718 83.4897C8.5327 84.0129 8.17064 84.6648 7.94097 85.434C7.703 86.2396 7.65545 87.0047 7.79819 87.7303C7.94098 88.4549 8.21927 89.1068 8.63305 89.6819C9.04584 90.2643 9.55893 90.7626 10.1765 91.1799C10.7942 91.6013 11.4542 91.9159 12.1597 92.1287ZM22.2845 89.7411C21.9121 90.993 21.3317 92.0591 20.5403 92.9342C19.7489 93.8094 18.8416 94.4945 17.8143 94.9814C16.7881 95.4724 15.6967 95.7609 14.535 95.8565C13.3742 95.9478 12.2497 95.8274 11.1583 95.5046C10.0224 95.1641 8.99616 94.6263 8.07753 93.8903C7.16403 93.1544 6.41715 92.2937 5.83679 91.3044C5.25849 90.3193 4.88296 89.2387 4.71638 88.0708C4.54675 86.8988 4.64193 85.7123 4.99986 84.5039C5.36709 83.2696 5.95262 82.2118 6.75954 81.344C7.56645 80.472 8.4872 79.7982 9.51755 79.3145C10.55 78.839 11.6466 78.5495 12.8063 78.4612C13.967 78.3698 15.0853 78.483 16.1581 78.8058C17.2961 79.1422 18.3212 79.6768 19.2306 80.4024C20.1389 81.127 20.8807 81.9803 21.4548 82.9551C22.03 83.933 22.4014 85.0053 22.569 86.1742C22.7376 87.3462 22.6424 88.5327 22.2845 89.7411Z" fill="#393738"/>
<path d="M195.76 43.0376C195.76 43.8941 195.068 44.5907 194.214 44.5907C193.361 44.5907 192.669 43.8941 192.669 43.0376C192.669 42.1802 193.361 41.4888 194.214 41.4888C195.068 41.4888 195.76 42.1802 195.76 43.0376Z" fill="#393738"/>
<path d="M29.2589 60.8675C29.2589 61.725 28.5678 62.4164 27.7133 62.4164C26.8598 62.4164 26.1678 61.725 26.1678 60.8675C26.1678 60.0111 26.8598 59.3146 27.7133 59.3146C28.5678 59.3146 29.2589 60.0111 29.2589 60.8675Z" fill="#393738"/>
<path d="M101.691 225.757C101.691 226.613 101 227.31 100.147 227.31C99.2923 227.31 98.6012 226.613 98.6012 225.757C98.6012 224.899 99.2923 224.208 100.147 224.208C101 224.208 101.691 224.899 101.691 225.757Z" fill="#393738"/>
<path d="M145.327 107.703C139.534 106.792 127.114 106.704 115.591 112.713L136.871 98.1675C121.984 101.954 110.132 102.954 102.26 101.518C95.8058 100.368 93.082 97.6329 93.082 94.7543C93.082 90.1514 101.83 88.2797 115.023 88.2797C127.394 88.2797 138.259 89.1807 147.792 90.6818C154.618 91.7594 160.779 93.1359 166.225 94.7543L174.255 72.5952C161.348 66.4061 142.129 63.9562 120.905 63.9562C78.1664 63.9562 61.5293 76.9126 61.5293 96.1941C61.5293 109.868 69.9378 116.351 81.8699 120.328C84.3206 121.148 95.8999 123.876 105.684 119.408L84.4458 133.924C100.711 129.208 115.255 128.878 127.788 130.592C143.133 132.174 149.014 135.049 149.014 138.217C149.014 143.974 138.832 146.278 123.485 146.278C104.43 146.278 89.5946 143.191 78.2656 138.206C75.099 136.81 72.191 135.28 69.5612 133.614L55.5064 153.762C73.4335 165.848 96.2372 170.455 120.044 170.455C163.643 170.455 180.567 156.495 180.567 135.628C180.567 119.221 167.413 111.161 145.327 107.703Z" fill="#393738"/>
</svg>
