<svg width="148" height="20" viewBox="0 0 148 20" fill="none" xmlns="http://www.w3.org/2000/svg">
<path d="M41.8761 7.51412C41.8761 5.7032 41.2918 5.24357 39.1837 5.24357H30.9548V10.054H39.1582C41.2918 10.054 41.8761 9.62201 41.8761 7.81184V7.51412ZM39.9457 0.541275C44.289 0.541275 47.3619 2.91902 47.3619 7.46014V7.73025C47.3619 12.5947 43.9077 14.5678 40.4538 14.5678H30.9548V19.4598H25.621V0.541275H39.9457Z" fill="#FFFDFD"/>
<path d="M67.3145 7.16262C67.3145 5.72976 66.6794 5.24352 64.6226 5.24352H56.038V9.51377H64.5716C66.6795 9.51377 67.3145 9.02751 67.3145 7.51407V7.16262ZM65.9177 0.541223C70.5153 0.541223 72.8005 2.54068 72.8005 6.51346V6.91912C72.8005 9.16233 71.7337 10.6758 69.6007 11.4595V11.5135C71.9376 12.2979 72.5467 13.5945 72.8264 16.4329C72.9529 17.7842 73.3339 18.7567 73.6137 19.4598H67.8988C67.7207 19.1897 67.6698 18.729 67.645 18.1082C67.5176 15.3781 66.4516 14.0275 63.9366 14.0275H56.038V19.4598H50.7041V0.541223H65.9177Z" fill="#FFFDFD"/>
<path d="M124.887 0.541275L114.626 19.4598H108.708L98.4727 0.541275H104.695L111.248 14.8645L111.349 15.162H112.01L112.111 14.8645L118.791 0.541275H124.887Z" fill="#FFFDFD"/>
<path d="M92.3292 11.8926L89.3582 5.24357L89.2816 5.02741H88.0624L87.9867 5.24357L85.0147 11.8926H92.3292ZM96.3422 19.4598L94.6661 16.2708H82.6778L81.0017 19.4598H75.2105L85.7005 0.541275H91.6185L102.133 19.4598H96.3422Z" fill="#FFFDFD"/>
<path d="M138.196 11.8926L135.225 5.24357L135.148 5.02741H133.929L133.853 5.24357L130.881 11.8926H138.196ZM142.209 19.4598L140.532 16.2708H128.544L126.868 19.4598H121.077L131.567 0.541275H137.485L148 19.4598H142.209Z" fill="#FFFDFD"/>
<path d="M15.9069 8.21644C14.8805 8.04375 12.6814 8.02792 10.6403 9.15605L14.4091 6.42484C11.7731 7.13601 9.67378 7.32379 8.27984 7.05444C7.13686 6.83755 6.65443 6.32493 6.65443 5.78373C6.65443 4.91944 8.20363 4.56773 10.5403 4.56773C12.7309 4.56773 14.6552 4.73692 16.3433 5.01859C17.5516 5.22142 18.6429 5.47999 19.6076 5.78373L21.0299 1.62241C18.7442 0.459655 15.3405 0 11.5818 0C4.01276 0 1.06675 2.43273 1.06675 6.05482C1.06675 8.62211 2.5558 9.83884 4.66882 10.5872C5.10289 10.7403 7.1536 11.2521 8.88611 10.4135L5.12505 13.1394C8.00547 12.2538 10.5809 12.1927 12.8005 12.5141C15.5184 12.8118 16.5597 13.351 16.5597 13.9462C16.5597 15.0274 14.7564 15.4596 12.0385 15.4596C8.66389 15.4596 6.03707 14.8803 4.03045 13.9434C3.46993 13.6821 2.95494 13.3944 2.48904 13.0809L0 16.8649C3.17482 19.1347 7.21306 20 11.4294 20C19.1501 20 22.1476 17.3785 22.1476 13.46C22.1476 10.378 19.818 8.8646 15.9069 8.21644Z" fill="#FFFDFD"/>
</svg>
