<svg width="162" height="162" viewBox="0 0 162 162" fill="none" xmlns="http://www.w3.org/2000/svg">
<path d="M34.5577 27.6515L29.1046 21.7006L26.9884 23.6539L28.1204 25.1446C29.0989 26.4165 29.8339 27.5025 30.3282 28.4075C30.8231 29.3153 31.1093 30.0999 31.1874 30.7605L34.5577 27.6515ZM28.4875 33.2517L28.8042 32.9603C29.0414 32.7244 29.1912 32.455 29.2537 32.1486C29.3155 31.8415 29.2495 31.4367 29.0599 30.9415C28.8703 30.4441 28.5365 29.8256 28.0586 29.0838C27.5821 28.3427 26.9288 27.4249 26.0979 26.331L23.9945 23.5762L29.4426 18.551L36.3054 26.0396L37.6361 24.8104L41.108 28.5992L39.4739 30.107L37.4124 27.8574L31.5446 33.2695L33.6075 35.522L31.9608 37.0405L28.4875 33.2517Z" fill="#ECF1F2"/>
<path d="M41.042 17.7329C41.304 18.1933 41.625 18.6009 42.0085 18.95C42.3927 19.3021 42.8095 19.5657 43.2612 19.7467C43.7114 19.9256 44.1872 20.0061 44.6843 19.9883C45.182 19.9705 45.6756 19.8201 46.1642 19.5408C46.6627 19.2565 47.0469 18.9023 47.3146 18.4776C47.583 18.055 47.7534 17.5975 47.8237 17.1052C47.8948 16.6149 47.8791 16.1196 47.7719 15.6144C47.6661 15.1142 47.4879 14.6439 47.2386 14.2013C46.9794 13.741 46.6535 13.3363 46.265 12.9871C45.8766 12.6401 45.4562 12.3764 45.0052 12.1976C44.5529 12.0166 44.0806 11.9389 43.5864 11.9638C43.0914 11.9866 42.605 12.1348 42.1264 12.4064C41.6264 12.6928 41.2408 13.0477 40.9674 13.4745C40.6947 13.9021 40.5243 14.3574 40.454 14.8398C40.3844 15.3251 40.4043 15.8175 40.5094 16.3177C40.6152 16.8208 40.7934 17.2933 41.042 17.7329ZM47.1853 21.3807C46.4085 21.826 45.6159 22.0747 44.81 22.1325C44.0033 22.188 43.2292 22.0926 42.4892 21.846C41.7493 21.5994 41.0697 21.2203 40.4519 20.7123C39.8348 20.2042 39.3334 19.6085 38.9478 18.9272C38.5445 18.2161 38.2909 17.4614 38.1873 16.6598C38.0829 15.8581 38.1219 15.0764 38.3016 14.3097C38.4827 13.5451 38.8086 12.831 39.2794 12.1726C39.7524 11.5142 40.3617 10.9712 41.1102 10.5437C41.8785 10.1061 42.6682 9.8624 43.4806 9.81752C44.2923 9.77191 45.0677 9.87736 45.8056 10.131C46.5448 10.3855 47.2215 10.7674 47.8401 11.2776C48.4579 11.7857 48.9557 12.3736 49.3356 13.0448C49.739 13.7567 49.9932 14.5078 50.099 15.3023C50.2048 16.0968 50.1693 16.8707 49.9911 17.6275C49.8135 18.3871 49.4883 19.0933 49.0168 19.7545C48.5459 20.413 47.9352 20.956 47.1853 21.3807Z" fill="#ECF1F2"/>
<path d="M62.5946 11.0537C62.5314 10.8449 62.4349 10.6539 62.3056 10.4829C62.1743 10.3119 62.028 10.1737 61.8647 10.0682C61.6999 9.96272 61.5216 9.89217 61.3327 9.85941C61.1432 9.82734 60.9493 9.8423 60.7519 9.90215L57.2609 10.971L58.1996 14.058L61.5749 13.0268C61.783 12.9642 61.9669 12.8665 62.1245 12.7333C62.2822 12.6 62.4065 12.4468 62.4967 12.268C62.5854 12.0898 62.6401 11.8931 62.6607 11.6822C62.6806 11.4734 62.6593 11.2625 62.5946 11.0537ZM55.8157 6.21239L56.714 9.16818L59.7435 8.24111C60.1277 8.12496 60.4152 7.8941 60.6027 7.54705C60.7916 7.20003 60.8165 6.79528 60.6752 6.3328C60.5381 5.88033 60.3066 5.56109 59.9785 5.37224C59.6504 5.18128 59.306 5.14349 58.9446 5.25466L55.8157 6.21239ZM65.0141 10.7822C65.1653 11.2803 65.1987 11.7449 65.1142 12.1803C65.0311 12.615 64.8543 13.0119 64.5859 13.3689C64.3167 13.7287 63.9744 14.0451 63.559 14.3166C63.1422 14.5881 62.6777 14.8019 62.1622 14.9601L56.5145 16.6874L52.9504 4.95537L59.2087 3.04207C59.6149 2.91882 60.0091 2.89385 60.3918 2.96938C60.7753 3.04491 61.1232 3.18815 61.44 3.39695C61.756 3.60786 62.0308 3.87439 62.2666 4.19363C62.5016 4.51288 62.6735 4.8549 62.785 5.21903C62.9576 5.7898 62.9781 6.37059 62.846 6.95847C62.7118 7.54919 62.4072 8.04731 61.9328 8.45705C62.6621 8.45206 63.2998 8.64586 63.8452 9.0378C64.3899 9.42973 64.7804 10.0133 65.0141 10.7822Z" fill="#ECF1F2"/>
<path d="M79.0661 10.1152L79.2572 12.1966L70.8066 12.9784L69.6853 0.766723L77.9825 0L78.1728 2.08147L72.2425 2.62942L72.5123 5.5703L77.6381 5.09784L77.8142 7.02326L72.6899 7.49571L72.981 10.6788L79.0661 10.1152Z" fill="#ECF1F2"/>
<path d="M87.0554 6.36029L89.7944 6.64673C90.2283 6.69161 90.6089 6.5534 90.9377 6.22917C91.2644 5.90494 91.4611 5.44031 91.5236 4.83179C91.5562 4.52252 91.5385 4.24103 91.4731 3.98236C91.4071 3.72799 91.3091 3.50707 91.1792 3.31826C91.0478 3.13224 90.888 2.98405 90.697 2.87856C90.506 2.77027 90.3085 2.70755 90.1026 2.68476L87.4659 2.41113L87.0554 6.36029ZM84.0515 12.2804L85.3191 0.0830759L90.4726 0.623237C91.0314 0.681661 91.5363 0.851983 91.9859 1.13632C92.4347 1.42276 92.8103 1.77476 93.1128 2.19236C93.4154 2.61207 93.6383 3.07455 93.7825 3.5826C93.9252 4.08996 93.9714 4.5902 93.9202 5.08333C93.867 5.59852 93.7228 6.08877 93.4906 6.55624C93.257 7.0237 92.9552 7.43129 92.5845 7.77263C92.2145 8.11753 91.7828 8.37904 91.2921 8.55719C90.7992 8.73818 90.2737 8.79875 89.7156 8.74102L86.8395 8.43889L86.4134 12.5263L84.0515 12.2804Z" fill="#ECF1F2"/>
<path d="M100.905 11.4181L109.499 5.19578L111.218 5.76441L107.404 17.4159L105.164 16.677L107.779 8.68533L99.3247 14.7537L97.5267 14.1608L101.339 2.50859L103.58 3.24757L100.905 11.4181Z" fill="#ECF1F2"/>
<path d="M120.741 22.2986L119.691 24.1035L112.363 19.8074L118.53 9.219L125.722 13.4375L124.672 15.2418L119.528 12.2254L118.044 14.7772L122.488 17.3817L121.515 19.0534L117.071 16.4461L115.464 19.2067L120.741 22.2986Z" fill="#ECF1F2"/>
<path d="M153.993 45.8738L143.349 51.9023L142.19 49.8408L146.733 47.269L144.008 42.4248L139.466 44.9966L138.298 42.923L148.942 36.8944L150.109 38.9709L145.806 41.4073L148.532 46.2514L152.834 43.813L153.993 45.8738Z" fill="#ECF1F2"/>
<path d="M151.744 61.5276L155.849 58.5063L150.743 58.2219L151.744 61.5276ZM158.13 56.7112L158.74 58.7271L148.394 66.7516L147.684 64.4058L150.271 62.4277L149.031 58.3274L145.79 58.1414L145.081 55.7934L158.13 56.7112Z" fill="#ECF1F2"/>
<path d="M151.714 77.9972L159.749 77.4065L159.538 74.5283L157.671 74.4927C156.071 74.4727 154.764 74.3744 153.749 74.2012C152.735 74.0281 151.945 73.7666 151.379 73.4145L151.714 77.9972ZM151.111 69.7469L151.143 70.1766C151.178 70.5086 151.296 70.7951 151.498 71.0338C151.7 71.2725 152.054 71.4713 152.561 71.6324C153.067 71.7906 153.758 71.911 154.632 71.9965C155.507 72.0849 156.631 72.1397 158.002 72.1646L161.457 72.2231L162 79.6312L151.888 80.3751L152.02 82.183L146.905 82.5599L146.742 80.3373L149.781 80.1136L149.196 72.1397L146.159 72.3635L145.994 70.1238L151.111 69.7469Z" fill="#ECF1F2"/>
<path d="M150.448 95.5402L148.385 95.2537L149.552 86.8167L161.657 88.5034L160.512 96.7843L158.449 96.4979L159.269 90.5777L156.352 90.173L155.645 95.2886L153.735 95.0221L154.443 89.9064L151.288 89.4668L150.448 95.5402Z" fill="#ECF1F2"/>
<path d="M152.292 104.967L159.26 103.422L158.273 105.908L152.381 107.124L151.917 108.296L156.586 110.162L155.675 112.457L151.005 110.591L150.547 111.745L153.994 116.692L153.001 119.196L149 113.266L141.5 115.028L142.487 112.542L148.462 111.21L149.023 109.797L144.321 107.919L145.232 105.624L149.932 107.501L150.494 106.091L147.072 100.986L148.052 98.515L152.292 104.967Z" fill="#ECF1F2"/>
<path d="M142.862 133.795L133.053 126.48L134.46 124.582L138.646 127.704L141.951 123.239L137.765 120.118L139.182 118.204L148.992 125.52L147.576 127.433L143.609 124.476L140.305 128.941L144.269 131.897L142.862 133.795Z" fill="#ECF1F2"/>
<path d="M132.022 136.211C131.682 135.803 131.291 135.464 130.849 135.189C130.41 134.916 129.95 134.732 129.475 134.639C128.997 134.544 128.517 134.551 128.032 134.662C127.545 134.773 127.089 135.011 126.657 135.373C126.22 135.745 125.907 136.163 125.721 136.63C125.536 137.095 125.453 137.578 125.472 138.073C125.491 138.571 125.599 139.056 125.795 139.531C125.991 140.004 126.251 140.433 126.577 140.821C126.918 141.226 127.311 141.565 127.757 141.834C128.202 142.105 128.663 142.286 129.139 142.382C129.616 142.475 130.095 142.465 130.577 142.349C131.059 142.236 131.511 142 131.932 141.643C132.371 141.271 132.685 140.851 132.875 140.381C133.064 139.911 133.15 139.433 133.13 138.945C133.11 138.455 133.002 137.975 132.807 137.503C132.611 137.027 132.349 136.595 132.022 136.211ZM125.316 133.751C126 133.174 126.733 132.782 127.516 132.578C128.3 132.374 129.077 132.326 129.849 132.435C130.621 132.538 131.359 132.784 132.059 133.171C132.759 133.558 133.361 134.051 133.864 134.649C134.39 135.273 134.777 135.972 135.026 136.741C135.275 137.508 135.379 138.284 135.344 139.071C135.305 139.855 135.114 140.614 134.772 141.351C134.429 142.085 133.929 142.731 133.271 143.289C132.596 143.86 131.863 144.244 131.073 144.438C130.283 144.632 129.502 144.672 128.73 144.559C127.958 144.443 127.222 144.194 126.522 143.808C125.821 143.42 125.223 142.932 124.727 142.344C124.201 141.718 123.813 141.027 123.564 140.265C123.315 139.503 123.209 138.737 123.245 137.96C123.282 137.18 123.473 136.424 123.816 135.69C124.158 134.956 124.658 134.31 125.316 133.751Z" fill="#ECF1F2"/>
<path d="M120.395 145.322C120.74 145.986 120.962 146.705 121.061 147.479C121.16 148.25 121.114 149.012 120.922 149.764C120.73 150.513 120.388 151.222 119.89 151.885C119.394 152.547 118.724 153.099 117.88 153.542C116.884 154.065 115.907 154.299 114.952 154.241C113.996 154.183 113.156 153.897 112.433 153.379L113.467 151.413C113.77 151.647 114.077 151.813 114.389 151.916C114.702 152.016 115.008 152.069 115.304 152.069C115.603 152.066 115.893 152.028 116.176 151.951C116.461 151.875 116.723 151.773 116.968 151.644C117.497 151.368 117.901 151.018 118.18 150.598C118.46 150.179 118.641 149.729 118.722 149.251C118.804 148.773 118.798 148.283 118.703 147.78C118.609 147.275 118.452 146.812 118.228 146.383C117.978 145.902 117.661 145.48 117.277 145.118C116.894 144.754 116.474 144.477 116.019 144.286C115.564 144.097 115.087 144.002 114.589 144.005C114.092 144.005 113.607 144.128 113.141 144.374C112.896 144.502 112.658 144.666 112.426 144.867C112.193 145.065 111.992 145.294 111.821 145.553C111.652 145.812 111.52 146.098 111.425 146.415C111.331 146.73 111.3 147.069 111.332 147.429L109.09 147.338C109.05 146.838 109.11 146.35 109.268 145.87C109.426 145.392 109.65 144.94 109.941 144.512C110.23 144.087 110.574 143.7 110.974 143.348C111.372 142.994 111.791 142.705 112.227 142.473C113.001 142.069 113.792 141.861 114.603 141.853C115.414 141.84 116.188 141.978 116.925 142.26C117.662 142.544 118.333 142.952 118.941 143.485C119.55 144.017 120.033 144.628 120.395 145.322Z" fill="#ECF1F2"/>
<path d="M97.7374 158.676L101.493 157.601L98.7082 147.819L100.976 147.168L103.761 156.949L107.519 155.873L108.09 157.882L98.3083 160.687L97.7374 158.676Z" fill="#ECF1F2"/>
<path d="M88.3536 151.789L86.1578 151.965C85.4939 152.017 85.011 152.236 84.7077 152.618C84.4052 153.001 84.2767 153.503 84.3264 154.122C84.3726 154.707 84.5835 155.173 84.9549 155.52C85.3291 155.864 85.8347 156.012 86.476 155.959L88.6724 155.783L88.3536 151.789ZM91.5172 161.812L89.1667 162L88.823 157.694L86.4902 157.883C85.8731 157.933 85.2971 157.893 84.7624 157.759C84.2284 157.631 83.759 157.414 83.3557 157.111C82.9509 156.809 82.627 156.422 82.3813 155.949C82.1378 155.479 81.9908 154.928 81.9397 154.298C81.8892 153.654 81.946 153.076 82.1122 152.565C82.2791 152.055 82.5347 151.618 82.8806 151.251C83.225 150.882 83.6447 150.587 84.1396 150.368C84.6353 150.15 85.1793 150.016 85.7737 149.969L90.5443 149.587L91.5172 161.812Z" fill="#ECF1F2"/>
<path d="M50.6025 150.983L49.7298 150.574L44.2341 153.565L41.8012 152.424L48.2768 148.92L46.6151 141.145L49.0161 142.271L50.4292 148.538L51.5065 149.043L53.6476 144.443L55.7858 145.443L50.6111 156.554L48.475 155.554L50.6025 150.983Z" fill="#ECF1F2"/>
<path d="M35.5328 139.043L33.9946 143.913L38.2831 141.12L35.5328 139.043ZM33.2085 146.714L31.5305 145.449L35.1621 132.845L37.1149 134.318L36.1925 137.445L39.6039 140.022L42.3287 138.252L44.2823 139.725L33.2085 146.714Z" fill="#ECF1F2"/>
<path d="M19.8535 134.37L18.2841 132.625L27.3511 124.403L28.9212 126.144L25.3826 129.355C25.5502 129.435 25.7157 129.526 25.8818 129.624C26.0473 129.722 26.2177 129.838 26.3946 129.973C26.5699 130.109 26.7532 130.27 26.9428 130.453C27.1324 130.639 27.3405 130.855 27.562 131.102C28.0477 131.643 28.3751 132.165 28.5484 132.676C28.7223 133.186 28.7707 133.682 28.6947 134.164C28.6173 134.644 28.4333 135.107 28.1422 135.546C27.8518 135.989 27.486 136.411 27.0422 136.811L24.2968 139.302L22.7267 137.56L24.975 135.521C25.3244 135.205 25.6013 134.903 25.8073 134.616C26.0118 134.33 26.136 134.046 26.1787 133.767C26.2213 133.488 26.1844 133.206 26.0686 132.922C25.9535 132.64 25.7526 132.341 25.4678 132.025C25.1525 131.676 24.8472 131.398 24.5532 131.202C24.2585 131.004 23.9993 130.873 23.7742 130.813L19.8535 134.37Z" fill="#ECF1F2"/>
<path d="M17.9543 113.701L19.7424 112.628L24.0941 119.937L13.6005 126.227L9.32903 119.05L11.1171 117.977L14.1714 123.108L16.6981 121.594L14.0585 117.16L15.7145 116.169L18.3527 120.601L21.0881 118.965L17.9543 113.701Z" fill="#ECF1F2"/>
<path d="M12.2129 111.315C11.5099 111.564 10.7692 111.685 9.99308 111.672C9.21619 111.662 8.47058 111.509 7.75757 111.212C7.04605 110.915 6.39555 110.476 5.81183 109.887C5.22739 109.301 4.77644 108.557 4.4583 107.655C4.08267 106.591 3.99103 105.591 4.18206 104.648C4.37382 103.708 4.77503 102.914 5.38788 102.268L7.18096 103.575C6.91042 103.841 6.70234 104.123 6.55676 104.419C6.4126 104.716 6.31814 105.01 6.27624 105.307C6.23507 105.601 6.23224 105.898 6.26844 106.189C6.30464 106.481 6.36856 106.757 6.46161 107.019C6.66044 107.582 6.94662 108.032 7.32157 108.371C7.69652 108.708 8.11409 108.952 8.57283 109.1C9.03441 109.246 9.51728 109.309 10.0272 109.286C10.537 109.266 11.0199 109.173 11.4737 109.013C11.9814 108.832 12.4437 108.577 12.8563 108.246C13.2696 107.917 13.602 107.539 13.8527 107.112C14.1047 106.687 14.266 106.227 14.3341 105.734C14.4037 105.239 14.3498 104.741 14.1729 104.243C14.082 103.982 13.9535 103.721 13.788 103.462C13.6233 103.203 13.4259 102.971 13.1958 102.765C12.965 102.562 12.7022 102.388 12.4026 102.25C12.1036 102.112 11.7755 102.034 11.4148 102.014L11.8203 99.7989C12.3188 99.8317 12.7931 99.96 13.2434 100.184C13.6943 100.41 14.1083 100.694 14.4868 101.044C14.8653 101.39 15.1998 101.788 15.4916 102.235C15.7835 102.68 16.0114 103.137 16.1755 103.603C16.4666 104.429 16.5604 105.244 16.456 106.051C16.3502 106.858 16.1066 107.607 15.7224 108.299C15.3404 108.992 14.8433 109.601 14.2326 110.131C13.6218 110.659 12.9494 111.054 12.2129 111.315Z" fill="#ECF1F2"/>
<path d="M2.249 86.9088L2.77874 90.7924L12.8236 89.4179L13.1438 91.763L3.0976 93.1383L3.62592 97.0247L1.5616 97.3062L0.186051 87.1903L2.249 86.9088Z" fill="#ECF1F2"/>
<path d="M9.11525 73.5786C8.89792 73.5637 8.68702 73.5865 8.48039 73.6492C8.27586 73.7098 8.09336 73.7974 7.93643 73.9128C7.7795 74.0312 7.65166 74.1694 7.55368 74.3375C7.45566 74.5036 7.40027 74.6896 7.38536 74.8962L7.13469 78.5511L10.3466 78.772L10.5887 75.2404C10.6051 75.0216 10.5781 74.8157 10.5106 74.6197C10.4432 74.423 10.3424 74.2528 10.2088 74.1039C10.0761 73.9585 9.91485 73.8373 9.72523 73.7418C9.53634 73.6492 9.33396 73.5936 9.11525 73.5786ZM2.1886 78.2091L5.26351 78.4207L5.4808 75.2504C5.50706 74.8485 5.39344 74.4965 5.13849 74.1972C4.88286 73.8957 4.51502 73.7297 4.03425 73.6941C3.56557 73.6641 3.18424 73.7675 2.89163 74.0062C2.59907 74.247 2.43931 74.5563 2.41442 74.934L2.1886 78.2091ZM9.72596 71.2157C10.2408 71.2506 10.686 71.3839 11.0617 71.6205C11.4367 71.8513 11.7441 72.1606 11.9828 72.5404C12.2207 72.9202 12.3918 73.3549 12.4962 73.8402C12.602 74.3255 12.6354 74.8378 12.5984 75.3787L12.1923 81.2888L0 80.4466L0.448808 73.8979C0.478627 73.4732 0.596486 73.0934 0.803151 72.7642C1.00981 72.43 1.26828 72.1535 1.57507 71.9319C1.88469 71.711 2.22981 71.5499 2.61042 71.4416C2.99106 71.3361 3.37098 71.2962 3.74876 71.3212C4.34456 71.3618 4.8928 71.5528 5.39272 71.8841C5.89267 72.219 6.24916 72.6836 6.46148 73.2744C6.7157 72.5882 7.12261 72.0601 7.68362 71.6882C8.24321 71.3162 8.92491 71.1601 9.72596 71.2157Z" fill="#ECF1F2"/>
<path d="M8.34692 63.2409C8.85253 63.392 9.36454 63.4596 9.88434 63.4468C10.4028 63.4319 10.8863 63.3335 11.3366 63.1504C11.7854 62.9644 12.1838 62.6951 12.5303 62.3359C12.8754 61.9761 13.1282 61.5264 13.2894 60.9834C13.452 60.4326 13.4847 59.9102 13.3846 59.4171C13.2844 58.9247 13.092 58.4772 12.8044 58.0725C12.5175 57.6677 12.1617 57.3229 11.7385 57.0342C11.3146 56.7478 10.8608 56.529 10.3772 56.3858C9.87156 56.2347 9.35674 56.1691 8.83832 56.187C8.3171 56.2069 7.83064 56.3074 7.38256 56.4934C6.93303 56.6772 6.53751 56.9487 6.19662 57.3107C5.85719 57.6699 5.60866 58.1174 5.45101 58.6454C5.28765 59.1984 5.25501 59.7236 5.35299 60.2216C5.45101 60.719 5.64204 61.1665 5.92608 61.5613C6.20943 61.9611 6.56164 62.3031 6.98559 62.5896C7.40955 62.8789 7.8626 63.0948 8.34692 63.2409ZM15.297 61.6019C15.0413 62.4613 14.6429 63.1931 14.0997 63.7938C13.5564 64.3946 12.9337 64.8649 12.2285 65.1991C11.524 65.5361 10.7748 65.7342 9.97738 65.7998C9.18062 65.8625 8.4087 65.7798 7.65949 65.5582C6.87977 65.3245 6.17533 64.9554 5.54475 64.4501C4.91768 63.9449 4.40499 63.3542 4.00661 62.6751C3.60964 61.9988 3.35186 61.257 3.23752 60.4554C3.12107 59.6509 3.18641 58.8364 3.4321 58.0069C3.68419 57.1597 4.08612 56.4335 4.64002 55.8378C5.19392 55.2392 5.82596 54.7768 6.53323 54.4447C7.24196 54.1183 7.99468 53.9195 8.79076 53.859C9.58752 53.7962 10.3552 53.8739 11.0916 54.0955C11.8727 54.3264 12.5764 54.6934 13.2006 55.1915C13.8242 55.6889 14.3333 56.2746 14.7274 56.9437C15.1223 57.615 15.3772 58.3511 15.4923 59.1535C15.608 59.958 15.5427 60.7725 15.297 61.6019Z" fill="#ECF1F2"/>
<path d="M134.377 29.5428C134.377 30.1307 133.903 30.6088 133.316 30.6088C132.73 30.6088 132.256 30.1307 132.256 29.5428C132.256 28.9542 132.73 28.4796 133.316 28.4796C133.903 28.4796 134.377 28.9542 134.377 29.5428Z" fill="#ECF1F2"/>
<path d="M20.0845 41.7819C20.0845 42.3706 19.6101 42.8451 19.0235 42.8451C18.4377 42.8451 17.9626 42.3706 17.9626 41.7819C17.9626 41.1941 18.4377 40.7159 19.0235 40.7159C19.6101 40.7159 20.0845 41.1941 20.0845 41.7819Z" fill="#ECF1F2"/>
<path d="M69.8051 154.969C69.8051 155.557 69.3307 156.035 68.7448 156.035C68.1583 156.035 67.6839 155.557 67.6839 154.969C67.6839 154.38 68.1583 153.905 68.7448 153.905C69.3307 153.905 69.8051 154.38 69.8051 154.969Z" fill="#ECF1F2"/>
<path d="M99.7583 73.932C95.7815 73.3064 87.2564 73.2458 79.3463 77.3709L93.9537 67.3862C83.7349 69.9857 75.5989 70.6719 70.1955 69.6864C65.765 68.8969 63.8952 67.0192 63.8952 65.0432C63.8952 61.8836 69.9001 60.5988 78.9564 60.5988C87.4482 60.5988 94.9067 61.2173 101.451 62.2477C106.136 62.9874 110.366 63.9322 114.104 65.0432L119.616 49.8323C110.756 45.5838 97.5633 43.9021 82.9942 43.9021C53.6566 43.9021 42.2362 52.7959 42.2362 66.0315C42.2362 75.4177 48.0082 79.8679 56.1988 82.5978C57.8811 83.1607 65.8296 85.0334 72.5461 81.9664L57.9671 91.9312C69.1324 88.694 79.1155 88.4673 87.7188 89.6438C98.2521 90.7298 102.289 92.703 102.289 94.8778C102.289 98.8298 95.3001 100.411 84.7653 100.411C71.6847 100.411 61.5014 98.2918 53.7247 94.8699C51.551 93.9122 49.5548 92.8619 47.7497 91.7182L38.1019 105.549C50.4077 113.845 66.0611 117.007 82.4034 117.007C112.331 117.007 123.948 107.424 123.948 93.1006C123.948 81.8382 114.919 76.3056 99.7583 73.932Z" fill="#ECF1F2"/>
</svg>
