<svg width="32" height="5" viewBox="0 0 32 5" fill="none" xmlns="http://www.w3.org/2000/svg">
<path d="M9.0543 1.87853C9.0543 1.4258 8.92796 1.31089 8.47216 1.31089H6.69295V2.51351H8.46666C8.92796 2.51351 9.0543 2.4055 9.0543 1.95296V1.87853ZM8.63692 0.135316C9.576 0.135316 10.2404 0.729753 10.2404 1.86503V1.93256C10.2404 3.14867 9.49357 3.64195 8.74679 3.64195H6.69295V4.86496H5.53968V0.135316H8.63692Z" fill="#494547"/>
<path d="M14.5544 1.79066C14.5544 1.43245 14.4171 1.31088 13.9724 1.31088H12.1162V2.37845H13.9613C14.4171 2.37845 14.5544 2.25688 14.5544 1.87852V1.79066ZM14.2524 0.135311C15.2465 0.135311 15.7406 0.635175 15.7406 1.62837V1.72979C15.7406 2.29059 15.5099 2.66895 15.0487 2.86488V2.87837C15.554 3.07449 15.6857 3.39863 15.7462 4.10823C15.7735 4.44604 15.8559 4.68917 15.9164 4.86495H14.6807C14.6422 4.79742 14.6312 4.68227 14.6259 4.52707C14.5983 3.84452 14.3678 3.50689 13.824 3.50689H12.1162V4.86495H10.963V0.135311H14.2524Z" fill="#494547"/>
<path d="M27.0025 0.135316L24.784 4.86496H23.5045L21.2914 0.135316H22.6368L24.0537 3.71613L24.0754 3.79049H24.2183L24.2402 3.71613L25.6846 0.135316H27.0025Z" fill="#494547"/>
<path d="M19.9631 2.97314L19.3207 1.31089L19.3041 1.25685H19.0405L19.0241 1.31089L18.3816 2.97314H19.9631ZM20.8308 4.86496L20.4683 4.06769H17.8763L17.5139 4.86496H16.2617L18.5298 0.135316H19.8094L22.0828 4.86496H20.8308Z" fill="#494547"/>
<path d="M29.8803 2.97314L29.2377 1.31089L29.2212 1.25685H28.9576L28.9412 1.31089L28.2987 2.97314H29.8803ZM30.7478 4.86496L30.3854 4.06769H27.7934L27.431 4.86496H26.1788L28.4469 0.135316H29.7265L32 4.86496H30.7478Z" fill="#494547"/>
<path d="M3.43933 2.05411C3.2174 2.01094 2.74192 2.00698 2.3006 2.28901L3.11549 1.60621C2.54554 1.784 2.09163 1.83095 1.79023 1.76361C1.5431 1.70939 1.4388 1.58123 1.4388 1.44593C1.4388 1.22986 1.77376 1.14193 2.27898 1.14193C2.75263 1.14193 3.16869 1.18423 3.53369 1.25465C3.79495 1.30535 4.03091 1.37 4.23947 1.44593L4.547 0.405602C4.05279 0.114914 3.31686 0 2.50417 0C0.867624 0 0.230648 0.608182 0.230648 1.5137C0.230648 2.15553 0.552605 2.45971 1.00947 2.64679C1.10333 2.68507 1.54672 2.81304 1.92132 2.60336L1.10812 3.28484C1.73091 3.06344 2.28775 3.04819 2.76768 3.12851C3.35532 3.20295 3.58047 3.33775 3.58047 3.48655C3.58047 3.75684 3.19057 3.86491 2.60292 3.86491C1.87327 3.86491 1.30531 3.72007 0.871449 3.48585C0.750255 3.42053 0.638906 3.34861 0.538172 3.27022L0 4.21623C0.686447 4.78368 1.55958 5 2.47122 5C4.14057 5 4.78866 4.34463 4.78866 3.36499C4.78866 2.59451 4.28497 2.21615 3.43933 2.05411Z" fill="#494547"/>
</svg>
