<svg width="78" height="10" viewBox="0 0 78 10" fill="none" xmlns="http://www.w3.org/2000/svg">
<path d="M22.0699 3.75705C22.0699 2.85159 21.7619 2.62178 20.6509 2.62178H16.3141V5.02702H20.6375C21.7619 5.02702 22.0699 4.811 22.0699 3.90592V3.75705ZM21.0525 0.270632C23.3415 0.270632 24.961 1.45951 24.961 3.73007V3.86512C24.961 6.29734 23.1406 7.28389 21.3203 7.28389H16.3141V9.72991H13.503V0.270632H21.0525Z" fill="#494547"/>
<path d="M35.4764 3.58132C35.4764 2.86489 35.1417 2.62177 34.0576 2.62177H29.5333V4.7569H34.0308C35.1417 4.7569 35.4764 4.51377 35.4764 3.75704V3.58132ZM34.7402 0.270622C37.1633 0.270622 38.3676 1.27035 38.3676 3.25674V3.45957C38.3676 4.58117 37.8054 5.3379 36.6812 5.72975V5.75674C37.9128 6.14898 38.2339 6.79725 38.3813 8.21646C38.4479 8.89209 38.6487 9.37834 38.7962 9.7299H35.7843C35.6905 9.59485 35.6636 9.36453 35.6505 9.05413C35.5834 7.68904 35.0216 7.01377 33.6961 7.01377H29.5333V9.7299H26.7222V0.270622H34.7402Z" fill="#494547"/>
<path d="M65.8186 0.270632L60.411 9.72991H57.2921L51.8977 0.270632H55.1772L58.6308 7.43225L58.6839 7.58098H59.0321L59.0856 7.43225L62.6063 0.270632H65.8186Z" fill="#494547"/>
<path d="M48.66 5.94628L47.0942 2.62178L47.0538 2.5137H46.4113L46.3713 2.62178L44.805 5.94628H48.66ZM50.775 9.72991L49.8916 8.13538H43.5735L42.6901 9.72991H39.6379L45.1665 0.270632H48.2854L53.8267 9.72991H50.775Z" fill="#494547"/>
<path d="M72.8333 5.94628L71.267 2.62178L71.2267 2.5137H70.5842L70.5441 2.62178L68.978 5.94628H72.8333ZM74.9477 9.72991L74.0644 8.13538H67.7463L66.863 9.72991H63.8107L69.3394 0.270632H72.4583L78 9.72991H74.9477Z" fill="#494547"/>
<path d="M8.38337 4.10822C7.84242 4.02187 6.68342 4.01396 5.60772 4.57802L7.59401 3.21242C6.20475 3.568 5.09835 3.66189 4.3637 3.52722C3.76132 3.41877 3.50707 3.16247 3.50707 2.89187C3.50707 2.45972 4.32354 2.28386 5.55502 2.28386C6.70953 2.28386 7.72368 2.36846 8.61337 2.5093C9.25019 2.61071 9.82534 2.73999 10.3337 2.89187L11.0833 0.811204C9.87868 0.229827 8.08485 0 6.10392 0C2.11483 0 0.562206 1.21636 0.562206 3.02741C0.562206 4.31105 1.34698 4.91942 2.46059 5.29359C2.68936 5.37014 3.77014 5.62607 4.68322 5.20673L2.70104 6.56968C4.2191 6.12688 5.5764 6.09637 6.74621 6.25703C8.1786 6.40589 8.72739 6.6755 8.72739 6.97309C8.72739 7.51369 7.77702 7.72982 6.34463 7.72982C4.5661 7.72982 3.1817 7.44013 2.12416 6.97171C1.82875 6.84105 1.55733 6.69722 1.31179 6.54044L0 8.43245C1.67321 9.56736 3.80148 10 6.02361 10C10.0926 10 11.6724 8.68925 11.6724 6.72998C11.6724 5.18902 10.4446 4.4323 8.38337 4.10822Z" fill="#494547"/>
</svg>
