<svg width="254" height="37" viewBox="0 0 254 37" fill="none" xmlns="http://www.w3.org/2000/svg">
<path d="M71.8685 13.9011C71.8685 10.5509 70.8657 9.70059 67.2478 9.70059H53.1253V18.6H67.2041C70.8657 18.6 71.8685 17.8007 71.8685 14.4519V13.9011ZM68.5555 1.00134C76.0095 1.00134 81.2833 5.40017 81.2833 13.8012V14.3009C81.2833 23.3002 75.3552 26.9504 69.4276 26.9504H53.1253V36.0007H43.9712V1.00134H68.5555Z" fill="#393738"/>
<path d="M115.526 13.2509C115.526 10.6001 114.436 9.70055 110.906 9.70055H96.1726V17.6005H110.818C114.436 17.6005 115.526 16.7009 115.526 13.9011V13.2509ZM113.128 1.0013C121.019 1.0013 124.941 4.7003 124.941 12.0499V12.8004C124.941 16.9503 123.11 19.7502 119.449 21.2001V21.2999C123.46 22.7512 124.505 25.1498 124.985 30.4009C125.202 32.9007 125.856 34.6999 126.336 36.0006H116.528C116.223 35.5009 116.135 34.6488 116.093 33.5003C115.874 28.4495 114.045 25.951 109.728 25.951H96.1726V36.0006H87.0186V1.0013H113.128Z" fill="#393738"/>
<path d="M214.332 1.00134L196.723 36.0007H186.567L169 1.00134H179.68L190.926 27.4993L191.099 28.0496H192.233L192.407 27.4993L203.872 1.00134H214.332Z" fill="#393738"/>
<path d="M158.457 22.0013L153.358 9.70059L153.226 9.30069H151.134L151.004 9.70059L145.904 22.0013H158.457ZM165.344 36.0007L162.468 30.1009H141.893L139.016 36.0007H129.077L147.081 1.00134H157.237L175.282 36.0007H165.344Z" fill="#393738"/>
<path d="M237.175 22.0013L232.074 9.70059L231.943 9.30069H229.851L229.721 9.70059L224.621 22.0013H237.175ZM244.061 36.0007L241.184 30.1009H220.61L217.733 36.0007H207.794L225.797 1.00134H235.954L254 36.0007H244.061Z" fill="#393738"/>
<path d="M27.2997 15.2004C25.5381 14.8809 21.764 14.8516 18.261 16.9387L24.7292 11.886C20.2052 13.2016 16.6023 13.549 14.21 13.0507C12.2484 12.6495 11.4204 11.7011 11.4204 10.6999C11.4204 9.10096 14.0792 8.4503 18.0894 8.4503C21.849 8.4503 25.1515 8.7633 28.0487 9.2844C30.1224 9.65962 31.9953 10.138 33.6508 10.6999L36.0918 3.00146C32.169 0.850362 26.3276 0 19.8769 0C6.88677 0 1.83077 4.50054 1.83077 11.2014C1.83077 15.9509 4.3863 18.2019 8.0127 19.5863C8.75766 19.8695 12.2771 20.8165 15.2505 19.2649L8.7957 24.3078C13.7391 22.6694 18.159 22.5566 21.9684 23.151C26.6329 23.7018 28.42 24.6993 28.42 25.8005C28.42 27.8006 25.3252 28.6003 20.6607 28.6003C14.8691 28.6003 10.3609 27.5285 6.91713 25.7953C5.95515 25.3119 5.07132 24.7797 4.27174 24.1996L0 31.2001C5.44867 35.3992 12.3792 37 19.6153 37C32.8658 37 38.01 32.1502 38.01 24.9009C38.01 19.1994 34.012 16.3995 27.2997 15.2004Z" fill="#393738"/>
</svg>
