<svg width="313" height="48" viewBox="0 0 313 48" fill="none" xmlns="http://www.w3.org/2000/svg">
<path d="M88.5624 18.0339C88.5624 13.6877 87.3266 12.5845 82.8684 12.5845H65.4654V24.1297H82.8145C87.3266 24.1297 88.5624 23.0928 88.5624 18.7484V18.0339ZM84.4798 1.29904C93.6653 1.29904 100.164 7.00563 100.164 17.9043V18.5526C100.164 30.2272 92.859 34.9627 85.5545 34.9627H65.4654V46.7036H54.185V1.29904H84.4798Z" fill="black"/>
<path d="M142.36 17.1903C142.36 13.7515 141.017 12.5845 136.667 12.5845H118.512V22.8331H136.559C141.017 22.8331 142.36 21.6661 142.36 18.0338V17.1903ZM139.406 1.29899C149.13 1.29899 153.962 6.09768 153.962 15.6324V16.6059C153.962 21.9896 151.706 25.6219 147.195 27.5028V27.6324C152.137 29.5151 153.426 32.6268 154.017 39.439C154.285 42.682 155.09 45.016 155.682 46.7035H143.596C143.219 46.0553 143.112 44.9498 143.059 43.4598C142.79 36.9074 140.535 33.6661 135.216 33.6661H118.512V46.7035H107.232V1.29899H139.406Z" fill="black"/>
<path d="M264.118 1.29904L242.419 46.7036H229.903L208.256 1.29904H221.416L235.275 35.6748L235.488 36.3887H236.885L237.1 35.6748L251.228 1.29904H264.118Z" fill="black"/>
<path d="M195.264 28.5422L188.981 12.5845L188.818 12.0658H186.24L186.08 12.5845L179.795 28.5422H195.264ZM203.751 46.7036L200.206 39.0498H174.852L171.308 46.7036H159.06L181.245 1.29904H193.761L215.997 46.7036H203.751Z" fill="black"/>
<path d="M292.267 28.5422L285.982 12.5845L285.82 12.0658H283.242L283.081 12.5845L276.796 28.5422H292.267ZM300.752 46.7036L297.207 39.0498H271.854L268.309 46.7036H256.061L278.246 1.29904H290.762L313 46.7036H300.752Z" fill="black"/>
<path d="M33.641 19.7194C31.4702 19.305 26.8194 19.267 22.5028 21.9745L30.4734 15.4196C24.8985 17.1264 20.4587 17.5771 17.5107 16.9306C15.0935 16.4101 14.0732 15.1798 14.0732 13.881C14.0732 11.8066 17.3496 10.9625 22.2913 10.9625C26.9242 10.9625 30.9937 11.3686 34.5639 12.0446C37.1193 12.5314 39.4273 13.152 41.4673 13.881L44.4753 3.89378C39.6414 1.10317 32.4431 0 24.4939 0C8.48645 0 2.25603 5.83854 2.25603 14.5316C2.25603 20.6931 5.40517 23.6132 9.87391 25.4092C10.7919 25.7767 15.1289 27.0052 18.7929 24.9923L10.8388 31.5345C16.9305 29.409 22.3771 29.2626 27.0713 30.0337C32.8193 30.7483 35.0215 32.0424 35.0215 33.4709C35.0215 36.0657 31.2078 37.1031 25.4599 37.1031C18.323 37.1031 12.7676 35.7126 8.52386 33.4642C7.33843 32.8371 6.2493 32.1466 5.26399 31.3941L0 40.4758C6.71431 45.9233 15.2546 48 24.1717 48C40.5 48 46.8391 41.7084 46.8391 32.3039C46.8391 24.9073 41.9124 21.275 33.641 19.7194Z" fill="black"/>
</svg>
