<svg width="422" height="92" viewBox="0 0 422 92" fill="none" xmlns="http://www.w3.org/2000/svg">
<path d="M7.40346 81.7049C6.8741 81.7699 6.36333 81.7789 5.87114 81.7319C5.38289 81.7113 4.94363 81.6578 4.55337 81.5714L3.82005 76.6659C4.15344 76.7324 4.48485 76.7857 4.81429 76.8258C5.11727 76.8692 5.45403 76.8682 5.82458 76.8227C6.40687 76.7512 6.93172 76.5659 7.39913 76.2667C7.89301 75.9644 8.33816 75.4263 8.73461 74.6525C9.15357 73.849 9.53255 72.6879 9.87153 71.1691C10.108 70.2269 10.3341 69.1248 10.5498 67.8629C10.7654 66.6009 10.9839 65.1775 11.2052 63.5926C11.453 62.0044 11.6883 60.2432 11.9113 58.3089C12.1568 56.345 12.4031 54.2065 12.6503 51.8932L29.3251 49.8458L27.5129 78.8329L21.637 79.5544L23.1224 55.6835L17.842 56.3318C17.7323 57.5808 17.6073 58.8182 17.4671 60.044C17.3229 61.2434 17.1748 62.4165 17.0228 63.5632C16.8708 64.7098 16.7109 65.8038 16.5431 66.845C16.4017 67.8829 16.2486 68.8418 16.0836 69.7215C15.9186 70.6012 15.755 71.4001 15.5929 72.1183C15.0545 74.4673 14.4281 76.3169 13.7135 77.6669C13.0214 78.9873 12.1682 79.9515 11.154 80.5595C10.1358 81.1411 8.88566 81.5229 7.40346 81.7049ZM34.1058 87.6922C33.4177 87.7767 32.8427 87.807 32.3809 87.7831C31.9231 87.7856 31.5275 87.7536 31.1941 87.6871L30.5022 83.0585C30.8541 83.069 31.2193 83.0779 31.5978 83.0852C31.9497 83.0957 32.3507 83.0733 32.8006 83.018C34.0446 82.8653 35.0104 82.3841 35.698 81.5745C36.3856 80.765 36.9377 79.7706 37.3545 78.5914L37.7286 77.5786L31.3235 56.3686L37.0406 55.6666L39.6088 65.5438C39.7749 66.1142 39.9225 66.7407 40.0514 67.4232C40.1804 68.1056 40.2942 68.7765 40.3927 69.4359C40.5138 70.0656 40.6138 70.6442 40.6926 71.1717L40.8515 71.1522C40.9697 70.6811 41.082 70.1704 41.1885 69.6202C41.2949 69.0699 41.4199 68.4637 41.5635 67.8015C41.7296 67.1097 41.9315 66.3866 42.1691 65.6323L45.6559 54.6088L52.0082 53.8288L42.5174 80.1329C41.9667 81.6777 41.2726 82.985 40.4353 84.0547C39.6243 85.1211 38.6833 85.9484 37.6122 86.5365C36.5716 87.1477 35.4028 87.5329 34.1058 87.6922ZM65.2225 68.2403C65.2642 67.6175 65.3078 67.0078 65.3534 66.4114C65.4255 65.8116 65.4995 65.2251 65.5756 64.6518L65.4168 64.6713C64.9967 65.2869 64.527 65.8414 64.0078 66.3349C63.4846 66.802 62.9099 67.1948 62.2837 67.5134C61.6536 67.8057 60.9415 68.0005 60.1474 68.098C58.9829 68.241 57.9396 68.114 57.0177 67.7169C56.0959 67.3198 55.3409 66.6873 54.753 65.8195C54.1876 64.922 53.8103 63.8403 53.621 62.5744C53.55 62.0997 53.5123 61.4866 53.5078 60.7351C53.4993 59.9573 53.5173 59.1762 53.5618 58.3919L53.8565 53.6019L59.6927 52.8853L59.3414 58.6491C59.2986 59.0841 59.2803 59.5026 59.2865 59.9047C59.2927 60.3068 59.3195 60.6661 59.3668 60.9826C59.489 61.8002 59.7802 62.3956 60.2403 62.7688C60.6964 63.1157 61.295 63.2436 62.0361 63.1526C62.9361 63.0421 63.6603 62.6578 64.2087 61.9995C64.7533 61.3149 65.177 60.3632 65.48 59.1442C65.779 57.8989 65.9837 56.3832 66.094 54.597L66.2435 52.0809L72.0797 51.3643L70.7032 73.5298L64.867 74.2464L65.2225 68.2403ZM82.7017 72.4594C80.9019 72.6804 79.4693 72.2923 78.4038 71.2951C77.3343 70.2716 76.6577 68.8103 76.3738 66.9114C76.3028 66.4367 76.2637 65.9043 76.2564 65.3144C76.2451 64.698 76.2563 64.0521 76.2901 63.3765L77.0315 50.7563L82.8677 50.0397L82.0942 62.9861C82.0514 63.4211 82.0331 63.8396 82.0393 64.2417C82.0455 64.6438 82.0723 65.0031 82.1196 65.3196C82.2418 66.1372 82.4913 66.7243 82.868 67.0809C83.2408 67.4111 83.7449 67.5373 84.3801 67.4593C85.28 67.3488 86.0188 66.882 86.5966 66.0591C87.2009 65.2329 87.673 64.1543 88.0132 62.8234C88.3533 61.4924 88.5678 60.0426 88.6567 58.474L89.1803 49.2646L95.0165 48.5481L94.243 61.4944C94.2002 61.9294 94.1819 62.348 94.1881 62.7501C94.1943 63.1522 94.221 63.5115 94.2683 63.8279C94.3906 64.6455 94.64 65.2326 95.0168 65.5892C95.3896 65.9195 95.8936 66.0456 96.5289 65.9676C97.1906 65.8863 97.7678 65.6006 98.2605 65.1104C98.7758 64.5905 99.2012 63.9206 99.5369 63.1005C99.899 62.2771 100.177 61.3433 100.371 60.2988C100.588 59.2247 100.731 58.106 100.8 56.9427L101.369 47.7681L107.205 47.0515L105.828 69.217L101.422 69.7581L101.221 65.7137L101.062 65.7332C100.633 66.6454 100.125 67.4866 99.5395 68.2568C98.9764 68.9974 98.2989 69.6043 97.5071 70.0775C96.7418 70.5475 95.8563 70.8443 94.8505 70.9678C94.1094 71.0587 93.4319 71.0345 92.8181 70.895C92.2347 70.7786 91.7036 70.5618 91.2249 70.2446C90.7688 69.8977 90.3689 69.4768 90.0254 68.9819C89.6779 68.4605 89.3868 67.8651 89.1519 67.1956L88.9931 67.2151C88.5899 68.1241 88.0823 68.9653 87.4701 69.7388C86.8805 70.4826 86.1898 71.0911 85.3981 71.5644C84.6063 72.0376 83.7075 72.3359 82.7017 72.4594ZM118.047 68.1196C116.803 68.2723 115.734 68.1485 114.838 67.7481C113.939 67.3214 113.222 66.6709 112.687 65.7966C112.152 64.9222 111.789 63.8521 111.6 62.5862C111.529 62.1114 111.478 61.5 111.447 60.7518C111.412 59.9772 111.417 59.1977 111.462 58.4134L112.179 46.4408L118.015 45.7242L117.241 58.6706C117.198 59.1056 117.18 59.5241 117.186 59.9262C117.193 60.3283 117.219 60.6876 117.267 61.0041C117.389 61.8217 117.652 62.4072 118.055 62.7605C118.48 63.0843 119.037 63.2039 119.726 63.1194C120.626 63.0089 121.364 62.5422 121.942 61.7192C122.542 60.8666 123.013 59.7749 123.353 58.4439C123.693 57.113 123.907 55.6632 123.996 54.0945L124.566 44.9199L130.402 44.2033L129.025 66.3688L124.579 66.9147L124.378 62.8704L124.18 62.8948C123.75 63.807 123.256 64.6465 122.697 65.4135C122.133 66.1541 121.469 66.7594 120.704 67.2293C119.939 67.6993 119.053 67.9961 118.047 68.1196ZM143.874 64.9484C142.18 65.1564 140.639 65.0367 139.252 64.5894C137.89 64.1388 136.747 63.3392 135.82 62.1906C134.92 61.0388 134.33 59.5267 134.05 57.6541C133.778 55.8344 133.77 54.0628 134.024 52.3395C134.301 50.5866 134.844 48.9891 135.653 47.5469C136.488 46.1015 137.603 44.9037 138.997 43.9537C140.387 42.9772 142.075 42.3671 144.06 42.1234C146.495 41.8244 148.391 42.1556 149.748 43.1171C151.131 44.0753 151.95 45.4115 152.207 47.1258C152.376 48.2599 152.265 49.3209 151.874 50.309C151.509 51.2938 150.86 52.1793 149.926 52.9654C149.019 53.7482 147.812 54.4201 146.306 54.9811C144.795 55.5157 142.981 55.913 140.864 56.173L139.871 56.2948C139.869 56.4563 139.877 56.603 139.897 56.7349C139.913 56.8404 139.93 56.959 139.95 57.0909C140.123 58.2514 140.592 59.1338 141.357 59.7383C142.147 60.3395 143.151 60.5654 144.369 60.4159C145.507 60.2761 146.519 60.0175 147.406 59.64C148.293 59.2625 149.329 58.7057 150.512 57.9695L151.169 62.3607C150.114 63.0543 149.025 63.6176 147.904 64.0507C146.779 64.4575 145.436 64.7567 143.874 64.9484ZM140.795 52.1931C142.303 52.0079 143.497 51.7001 144.376 51.2699C145.255 50.8397 145.867 50.3348 146.212 49.7554C146.579 49.1463 146.717 48.5384 146.627 47.9318C146.536 47.3252 146.284 46.8996 145.87 46.655C145.478 46.3808 144.965 46.2827 144.33 46.3607C143.615 46.4484 142.934 46.7603 142.286 47.2964C141.639 47.8325 141.096 48.5303 140.659 49.3898C140.248 50.246 140.002 51.2162 139.921 52.3004L140.795 52.1931ZM175.374 61.0808C173.415 61.3212 171.683 61.1848 170.178 60.6713C168.699 60.1546 167.506 59.2939 166.598 58.0894C165.686 56.8584 165.092 55.3199 164.816 53.4737C164.599 52.0232 164.549 50.6059 164.666 49.2218C164.809 47.8345 165.113 46.5348 165.579 45.3228C166.071 44.1075 166.728 43.0062 167.551 42.0188C168.4 41.0283 169.425 40.2176 170.624 39.5869C171.824 38.9562 173.217 38.5433 174.805 38.3483C176.367 38.1566 177.764 38.2134 178.995 38.5188C180.227 38.8241 181.239 39.3713 182.03 40.1604C182.822 40.9495 183.311 41.9638 183.496 43.2034C183.658 44.2847 183.578 45.1942 183.257 45.9319C182.963 46.6664 182.488 47.2753 181.832 47.7586C181.203 48.2387 180.454 48.6395 179.586 48.961L179.61 49.1193C180.575 49.2693 181.454 49.6449 182.244 50.2461C183.031 50.8209 183.519 51.7413 183.708 53.0072C183.89 54.2204 183.728 55.3951 183.224 56.5313C182.72 57.6675 181.829 58.6498 180.552 59.4781C179.27 60.28 177.544 60.8143 175.374 61.0808ZM174.844 56.9963C175.585 56.9053 176.189 56.7102 176.657 56.4111C177.12 56.0856 177.451 55.6825 177.648 55.2016C177.846 54.7208 177.901 54.1902 177.815 53.61C177.728 53.0298 177.511 52.573 177.165 52.2395C176.845 51.9027 176.38 51.6778 175.77 51.5647C175.161 51.4516 174.366 51.4551 173.387 51.5754L170.568 51.9215C170.569 52.1094 170.585 52.3088 170.617 52.5198C170.648 52.7308 170.68 52.9418 170.711 53.1527C170.94 54.6824 171.435 55.7363 172.195 56.3144C172.982 56.8892 173.865 57.1165 174.844 56.9963ZM174.655 47.3507C175.396 47.2597 176.018 47.0894 176.52 46.8398C177.017 46.5638 177.369 46.2117 177.575 45.7836C177.803 45.3259 177.873 44.8069 177.787 44.2267C177.696 43.6201 177.413 43.1714 176.939 42.8805C176.464 42.5897 175.882 42.4865 175.194 42.571C174.453 42.662 173.781 42.9459 173.179 43.4228C172.572 43.8732 172.071 44.4854 171.674 45.2592C171.274 46.0067 170.971 46.8631 170.765 47.8284L174.655 47.3507ZM205.666 57.3613C204.184 57.5433 202.782 57.4469 201.459 57.0722C200.159 56.6678 199.064 55.9293 198.176 54.8566C197.288 53.7839 196.702 52.2981 196.418 50.3992C196.186 48.8432 196.122 47.3336 196.226 45.8704C196.358 44.404 196.637 43.0268 197.064 41.7388C197.518 40.4477 198.141 39.2968 198.934 38.2864C199.726 37.276 200.693 36.4454 201.836 35.7948C202.979 35.1442 204.278 34.7296 205.734 34.5508C207.03 34.3916 208.2 34.3689 209.241 34.4828C210.309 34.5934 211.326 34.8176 212.293 35.1555L211.169 39.8056C210.437 39.6 209.711 39.434 208.992 39.3075C208.295 39.1513 207.522 39.1253 206.676 39.2293C205.934 39.3203 205.285 39.5746 204.728 39.9922C204.17 40.4098 203.698 40.9511 203.313 41.6162C202.953 42.2781 202.661 43.0257 202.435 43.8592C202.236 44.6894 202.124 45.5626 202.099 46.4788C202.07 47.3686 202.125 48.2751 202.263 49.1981C202.385 50.0157 202.62 50.6852 202.967 51.2065C203.315 51.7279 203.749 52.1044 204.268 52.336C204.811 52.538 205.439 52.5951 206.154 52.5073C207.133 52.3871 208.011 52.1315 208.788 51.7407C209.588 51.3202 210.404 50.8305 211.237 50.2717L211.947 55.0189C211.118 55.6042 210.196 56.1068 209.18 56.5269C208.188 56.9174 207.016 57.1955 205.666 57.3613ZM225.255 54.9561C223.297 55.1966 221.565 55.0601 220.059 54.5466C218.581 54.0299 217.387 53.1692 216.479 51.9647C215.568 50.7337 214.974 49.1952 214.698 47.349C214.481 45.8985 214.431 44.4812 214.547 43.0971C214.69 41.7098 214.995 40.4101 215.46 39.1981C215.953 37.9828 216.61 36.8815 217.433 35.8941C218.282 34.9036 219.306 34.0929 220.506 33.4622C221.705 32.8315 223.099 32.4186 224.687 32.2236C226.249 32.0319 227.645 32.0887 228.877 32.3941C230.109 32.6994 231.12 33.2466 231.912 34.0357C232.704 34.8248 233.192 35.8391 233.378 37.0787C233.539 38.16 233.46 39.0695 233.139 39.8072C232.844 40.5417 232.369 41.1506 231.714 41.6339C231.085 42.114 230.336 42.5148 229.468 42.8363L229.491 42.9946C230.457 43.1446 231.335 43.5202 232.126 44.1214C232.913 44.6962 233.401 45.6166 233.59 46.8825C233.771 48.0957 233.61 49.2704 233.106 50.4066C232.602 51.5428 231.711 52.5251 230.433 53.3534C229.152 54.1554 227.426 54.6896 225.255 54.9561ZM224.726 50.8716C225.467 50.7806 226.071 50.5855 226.538 50.2864C227.002 49.9609 227.332 49.5578 227.53 49.0769C227.728 48.5961 227.783 48.0655 227.696 47.4853C227.61 46.9051 227.393 46.4483 227.047 46.1148C226.727 45.778 226.262 45.5531 225.652 45.44C225.042 45.3269 224.248 45.3304 223.268 45.4507L220.449 45.7968C220.451 45.9847 220.467 46.1841 220.498 46.3951C220.53 46.6061 220.562 46.8171 220.593 47.028C220.822 48.5577 221.316 49.6116 222.076 50.1897C222.863 50.7645 223.746 50.9918 224.726 50.8716ZM224.537 41.226C225.278 41.135 225.899 40.9647 226.401 40.7151C226.899 40.4391 227.251 40.087 227.456 39.6589C227.684 39.2012 227.755 38.6822 227.668 38.102C227.578 37.4954 227.295 37.0467 226.82 36.7558C226.345 36.465 225.764 36.3618 225.076 36.4463C224.335 36.5373 223.663 36.8212 223.06 37.2981C222.454 37.7485 221.952 38.3607 221.556 39.1345C221.156 39.882 220.852 40.7384 220.646 41.7037L224.537 41.226ZM246.267 52.3761C244.653 52.5744 243.161 52.4218 241.792 51.9185C240.445 51.3855 239.322 50.5431 238.422 49.3913C237.549 48.2362 236.984 46.8016 236.728 45.0873C236.499 43.5576 236.426 42.076 236.508 40.6424C236.616 39.2056 236.888 37.8696 237.324 36.6345C237.755 35.3729 238.369 34.2501 239.165 33.266C239.961 32.2819 240.933 31.4778 242.079 30.8536C243.249 30.1997 244.601 29.7786 246.136 29.5901C247.83 29.3821 249.337 29.5462 250.657 30.0824C251.973 30.5923 253.058 31.4527 253.913 32.6638C254.791 33.8452 255.363 35.3326 255.631 37.126C255.848 38.5766 255.914 40.0055 255.827 41.4126C255.741 42.8198 255.481 44.141 255.045 45.3762C254.637 46.6081 254.047 47.7145 253.277 48.6953C252.508 49.6761 251.538 50.4935 250.369 51.1473C249.196 51.7748 247.829 52.1844 246.267 52.3761ZM246.034 47.5704C246.669 47.4924 247.228 47.2626 247.71 46.8812C248.188 46.4733 248.595 45.9533 248.932 45.3211C249.269 44.6888 249.512 43.9741 249.663 43.1767C249.84 42.3761 249.927 41.5194 249.925 40.6064C249.95 39.6902 249.894 38.7706 249.756 37.8475C249.645 37.1091 249.456 36.4743 249.188 35.9432C248.942 35.3825 248.584 34.9699 248.113 34.7054C247.665 34.4113 247.097 34.3065 246.409 34.3909C245.694 34.4787 245.088 34.7545 244.592 35.2183C244.095 35.6822 243.684 36.2698 243.359 36.9811C243.057 37.6628 242.821 38.4304 242.652 39.2837C242.51 40.1338 242.438 41.0021 242.435 41.8887C242.429 42.7489 242.485 43.5746 242.603 44.3658C242.777 45.5262 243.147 46.3805 243.714 46.9286C244.281 47.4767 245.055 47.6906 246.034 47.5704ZM268.975 49.5879C267.281 49.7959 265.74 49.6763 264.353 49.2289C262.992 48.7783 261.848 47.9787 260.921 46.8302C260.021 45.6783 259.432 44.1662 259.152 42.2937C258.88 40.4739 258.871 38.7023 259.125 36.9791C259.402 35.2261 259.945 33.6286 260.754 32.1864C261.589 30.741 262.704 29.5433 264.098 28.5932C265.488 27.6167 267.176 27.0066 269.161 26.7629C271.596 26.4639 273.492 26.7951 274.849 27.7566C276.232 28.7148 277.052 30.051 277.308 31.7653C277.477 32.8994 277.366 33.9604 276.975 34.9485C276.61 35.9333 275.961 36.8188 275.027 37.6049C274.12 38.3877 272.913 39.0596 271.407 39.6206C269.896 40.1552 268.083 40.5525 265.965 40.8125L264.973 40.9343C264.97 41.0958 264.978 41.2425 264.998 41.3744C265.014 41.4799 265.031 41.5986 265.051 41.7304C265.225 42.8909 265.693 43.7733 266.458 44.3778C267.248 44.979 268.252 45.2049 269.47 45.0554C270.608 44.9156 271.621 44.657 272.508 44.2795C273.395 43.9021 274.43 43.3452 275.614 42.609L276.27 47.0002C275.215 47.6938 274.126 48.2571 273.005 48.6902C271.88 49.097 270.537 49.3962 268.975 49.5879ZM265.896 36.8326C267.404 36.6474 268.598 36.3396 269.477 35.9094C270.356 35.4792 270.968 34.9743 271.313 34.3949C271.68 33.7858 271.818 33.1779 271.728 32.5713C271.637 31.9647 271.385 31.5391 270.971 31.2945C270.579 31.0203 270.066 30.9222 269.431 31.0002C268.716 31.0879 268.035 31.3998 267.387 31.9359C266.74 32.472 266.197 33.1698 265.76 34.0293C265.349 34.8855 265.103 35.8557 265.022 36.9399L265.896 36.8326ZM280.772 47.7365L282.109 25.5759L290.169 24.5864L293.256 39.5565L293.375 39.5419L298.903 23.5139L307.201 22.4951L305.785 44.6654L300.385 45.3284L301.171 34.3546C301.233 33.3264 301.314 32.3361 301.414 31.3838C301.51 30.4051 301.607 29.6143 301.706 29.0113L301.587 29.0259L295.74 45.8987L290.142 46.5861L286.897 30.8296L286.818 30.8394C286.843 31.9105 286.842 32.8911 286.813 33.7809C286.78 34.6443 286.734 35.5094 286.675 36.3761L286.132 47.0784L280.772 47.7365ZM329.475 42.1594C327.543 42.3967 325.9 42.2224 324.546 41.6367C323.187 41.0246 322.12 40.1082 321.345 38.8874C320.569 37.6666 320.061 36.2518 319.821 34.643C319.6 33.166 319.543 31.7899 319.648 30.5146C319.75 29.2129 320.006 28.0401 320.416 26.996C320.822 25.9255 321.358 25.0003 322.023 24.2204C322.684 23.4141 323.463 22.7678 324.361 22.2815C325.259 21.7953 326.263 21.484 327.375 21.3475C328.275 21.237 329.079 21.2993 329.788 21.5346C330.524 21.7666 331.182 22.1154 331.764 22.5812C332.346 23.0469 332.858 23.5883 333.301 24.2054L333.46 24.1859C333.455 23.9716 333.434 23.7458 333.399 23.5085C333.359 23.2447 333.33 23.0469 333.31 22.9151C332.924 20.3305 332.232 18.4951 331.234 17.409C330.258 16.2934 328.871 15.846 327.071 16.067C326.462 16.1417 325.812 16.3021 325.121 16.5481C324.426 16.7677 323.805 17.032 323.259 17.3408L321.342 12.9029C322.141 12.4824 323.046 12.1297 324.054 11.8447C325.063 11.5597 326.136 11.3474 327.274 11.2076C329.656 10.9151 331.663 11.179 333.295 11.9992C334.927 12.8194 336.226 14.1103 337.19 15.872C338.154 17.6337 338.825 19.7804 339.204 22.3123C339.424 23.7892 339.541 25.2923 339.554 26.8216C339.59 28.3213 339.498 29.7828 339.28 31.2063C339.057 32.6033 338.702 33.9227 338.214 35.1644C337.752 36.4028 337.123 37.5141 336.327 38.4981C335.531 39.4822 334.561 40.2995 333.419 40.9501C332.298 41.5711 330.984 41.9742 329.475 42.1594ZM329.083 37.3732C329.745 37.2919 330.319 37.0738 330.805 36.7187C331.287 36.3372 331.685 35.8451 331.999 35.2426C332.34 34.6367 332.603 33.9599 332.787 33.212C332.999 32.4609 333.149 31.6636 333.238 30.82C333.324 29.9501 333.368 29.0718 333.37 28.1852C333.125 27.6245 332.811 27.1527 332.431 26.7697C332.046 26.3603 331.596 26.053 331.08 25.8478C330.591 25.6393 330.042 25.5724 329.433 25.6472C328.824 25.7219 328.286 25.9089 327.819 26.208C327.351 26.5071 326.954 26.9184 326.628 27.4418C326.298 27.9389 326.037 28.535 325.845 29.2301C325.674 29.8956 325.571 30.6469 325.535 31.4839C325.52 32.2914 325.584 33.1699 325.726 34.1193C325.896 35.2534 326.266 36.1076 326.837 36.6821C327.435 37.2533 328.183 37.4837 329.083 37.3732ZM352.724 39.3048C351.03 39.5128 349.49 39.3931 348.102 38.9458C346.741 38.4952 345.597 37.6956 344.671 36.5471C343.771 35.3952 343.181 33.8831 342.901 32.0105C342.629 30.1908 342.62 28.4192 342.875 26.6959C343.152 24.943 343.694 23.3455 344.503 21.9033C345.338 20.4579 346.453 19.2601 347.847 18.3101C349.238 17.3336 350.925 16.7235 352.91 16.4798C355.346 16.1808 357.241 16.512 358.598 17.4735C359.981 18.4317 360.801 19.7679 361.057 21.4822C361.227 22.6163 361.116 23.6773 360.724 24.6654C360.359 25.6502 359.71 26.5357 358.776 27.3218C357.869 28.1046 356.662 28.7765 355.156 29.3375C353.646 29.8721 351.832 30.2694 349.714 30.5294L348.722 30.6512C348.719 30.8127 348.727 30.9594 348.747 31.0913C348.763 31.1968 348.781 31.3154 348.8 31.4473C348.974 32.6078 349.443 33.4902 350.207 34.0947C350.998 34.6959 352.002 34.9218 353.219 34.7723C354.357 34.6325 355.37 34.3739 356.257 33.9964C357.144 33.6189 358.179 33.0621 359.363 32.3259L360.019 36.7171C358.964 37.4107 357.876 37.974 356.754 38.4071C355.629 38.8139 354.286 39.1131 352.724 39.3048ZM349.645 26.5495C351.154 26.3643 352.348 26.0565 353.227 25.6263C354.106 25.1961 354.717 24.6912 355.062 24.1118C355.429 23.5027 355.568 22.8948 355.477 22.2882C355.386 21.6816 355.134 21.256 354.72 21.0114C354.329 20.7372 353.815 20.6391 353.18 20.7171C352.465 20.8048 351.784 21.1167 351.137 21.6528C350.489 22.1889 349.946 22.8867 349.509 23.7462C349.098 24.6024 348.852 25.5726 348.772 26.6568L349.645 26.5495ZM365.454 37.7418C364.872 37.8133 364.35 37.8371 363.888 37.8132C363.43 37.8157 362.963 37.7523 362.485 37.6229L361.769 32.8361C362.076 32.9059 362.366 32.9509 362.639 32.9711C362.885 32.9946 363.153 32.9885 363.445 32.9527C363.947 32.891 364.359 32.6659 364.678 32.2776C365.02 31.8596 365.289 31.3163 365.485 30.6475C365.708 29.9756 365.891 29.2146 366.034 28.3645C366.202 27.5111 366.379 26.6166 366.562 25.6809C366.925 23.7831 367.324 22.1227 367.758 20.6997C368.192 19.2766 368.768 18.0779 369.485 17.1036C370.202 16.1293 371.177 15.3515 372.411 14.7703C373.641 14.1627 375.235 13.7387 377.194 13.4982C378.517 13.3357 379.792 13.3 381.019 13.3911C382.268 13.4526 383.284 13.5829 384.069 13.782L382.785 35.211L376.948 35.9276L378.046 18.389C377.853 18.359 377.649 18.3439 377.433 18.3435C377.217 18.3431 377.003 18.3559 376.792 18.3819C375.733 18.5119 374.918 18.9208 374.347 19.6087C373.803 20.2933 373.381 21.2582 373.082 22.5035C372.783 23.7488 372.461 25.2924 372.116 27.1342C371.864 28.5081 371.599 29.8029 371.322 31.0186C371.072 32.231 370.723 33.3213 370.275 34.2895C369.823 35.2314 369.211 36.0048 368.439 36.6099C367.693 37.2118 366.698 37.589 365.454 37.7418ZM397.662 33.7872C395.968 33.9952 394.427 33.8755 393.039 33.4282C391.678 32.9776 390.535 32.178 389.608 31.0294C388.708 29.8776 388.118 28.3654 387.838 26.4929C387.566 24.6731 387.558 22.9016 387.812 21.1783C388.089 19.4254 388.632 17.8279 389.441 16.3857C390.276 14.9403 391.39 13.7425 392.785 12.7924C394.175 11.816 395.863 11.2059 397.848 10.9622C400.283 10.6632 402.179 10.9944 403.536 11.9558C404.919 12.914 405.738 14.2503 405.995 15.9646C406.164 17.0986 406.053 18.1597 405.662 19.1478C405.297 20.1326 404.648 21.0181 403.714 21.8041C402.807 22.587 401.6 23.2589 400.094 23.8199C398.583 24.3545 396.769 24.7517 394.652 25.0117L393.659 25.1336C393.656 25.2951 393.665 25.4418 393.685 25.5736C393.7 25.6791 393.718 25.7978 393.738 25.9297C393.911 27.0901 394.38 27.9726 395.144 28.577C395.935 29.1783 396.939 29.4041 398.157 29.2546C399.295 29.1149 400.307 28.8563 401.194 28.4788C402.081 28.1013 403.117 27.5445 404.3 26.8083L404.957 31.1995C403.901 31.8931 402.813 32.4564 401.692 32.8895C400.567 33.2962 399.223 33.5955 397.662 33.7872ZM394.582 21.0319C396.091 20.8466 397.285 20.5389 398.164 20.1087C399.043 19.6784 399.655 19.1736 400 18.5941C400.367 17.985 400.505 17.3772 400.414 16.7706C400.324 16.164 400.071 15.7384 399.657 15.4938C399.266 15.2196 398.753 15.1214 398.118 15.1994C397.403 15.2872 396.722 15.5991 396.074 16.1352C395.427 16.6713 394.884 17.3691 394.446 18.2285C394.035 19.0847 393.79 20.0549 393.709 21.1391L394.582 21.0319ZM410.524 23.1031L410.52 3.60491L415.642 2.97606L414.574 22.6059L410.524 23.1031ZM413.108 31.7296C412.234 31.8368 411.478 31.6476 410.839 31.162C410.201 30.6764 409.822 30.038 409.704 29.2468C409.586 28.4556 409.763 27.749 410.236 27.1269C410.709 26.5048 411.383 26.1401 412.256 26.0329C413.129 25.9256 413.885 26.1148 414.524 26.6004C415.163 27.086 415.541 27.7244 415.659 28.5156C415.778 29.3068 415.6 30.0135 415.127 30.6355C414.654 31.2576 413.981 31.6223 413.108 31.7296Z" fill="#FEDE32"/>
</svg>
