<svg width="18" height="18" viewBox="0 0 18 18" fill="none" xmlns="http://www.w3.org/2000/svg">
<path d="M13.6848 11.9071C13.0968 11.3265 12.3626 11.3265 11.7783 11.9071C11.3325 12.3491 10.8868 12.7911 10.4486 13.2406C10.3287 13.3642 10.2276 13.3904 10.0815 13.308C9.79305 13.1507 9.48591 13.0233 9.20873 12.851C7.91646 12.0382 6.83396 10.9931 5.87506 9.81693C5.39935 9.23259 4.97609 8.60704 4.68018 7.90283C4.62025 7.76049 4.63149 7.66684 4.7476 7.55072C5.19334 7.11996 5.62784 6.67795 6.06609 6.23595C6.67664 5.62164 6.67664 4.90245 6.06234 4.28439C5.71399 3.93229 5.36564 3.58767 5.01729 3.23557C4.65771 2.87597 4.30187 2.51263 3.93853 2.15678C3.35046 1.58367 2.6163 1.58367 2.03197 2.16053C1.58249 2.60253 1.15174 3.05577 0.694761 3.49028C0.271498 3.89108 0.0579932 4.38178 0.0130448 4.95489C-0.0581234 5.88759 0.170364 6.76785 0.492494 7.62564C1.15174 9.40115 2.15558 10.9781 3.37293 12.424C5.01729 14.3793 6.98004 15.9263 9.27615 17.0426C10.31 17.5445 11.3812 17.9303 12.5461 17.994C13.3477 18.0389 14.0444 17.8367 14.6025 17.2111C14.9846 16.7841 15.4153 16.3945 15.8199 15.9863C16.4192 15.3794 16.4229 14.6453 15.8274 14.0459C15.1157 13.3305 14.4003 12.6188 13.6848 11.9071Z" fill="#DF2623"/>
<path d="M12.9696 8.9228L14.3518 8.68682C14.1345 7.41699 13.5352 6.26704 12.625 5.35306C11.6624 4.39039 10.445 3.78358 9.10407 3.59629L8.90929 4.98597C9.94685 5.13206 10.8908 5.60029 11.6362 6.3457C12.3404 7.04991 12.8011 7.9414 12.9696 8.9228Z" fill="#DF2623"/>
<path d="M15.1308 2.91423C13.5351 1.31852 11.5162 0.310901 9.28751 0L9.09274 1.38969C11.018 1.65939 12.7635 2.53216 14.1419 3.90686C15.4492 5.21414 16.3069 6.86604 16.6178 8.68275L18 8.44676C17.6367 6.34163 16.6441 4.43127 15.1308 2.91423Z" fill="#DF2623"/>
</svg>
