<svg width="39" height="48" viewBox="0 0 51 64" fill="none" xmlns="http://www.w3.org/2000/svg">
<mask id="path-1-inside-1_264_90" fill="white">
<path d="M25.5028 0C32.3141 8.25984e-05 38.7185 2.40489 43.5351 6.77051C52.4487 14.8486 53.5563 30.048 45.9032 39.2939L28.1923 62.4795C26.8376 64.2527 24.1671 64.2527 22.8124 62.4795L5.0712 39.2559C-2.55106 30.0473 -1.44377 14.8486 7.46964 6.77051C12.2863 2.40482 18.6902 0 25.5028 0ZM25.4999 13C19.7009 13 14.9999 17.701 14.9999 23.5C14.9999 29.299 19.7009 34 25.4999 34C31.2989 34 35.9999 29.299 35.9999 23.5C35.9999 17.701 31.2989 13 25.4999 13Z"/>
</mask>
<path d="M25.5028 0C32.3141 8.25984e-05 38.7185 2.40489 43.5351 6.77051C52.4487 14.8486 53.5563 30.048 45.9032 39.2939L28.1923 62.4795C26.8376 64.2527 24.1671 64.2527 22.8124 62.4795L5.0712 39.2559C-2.55106 30.0473 -1.44377 14.8486 7.46964 6.77051C12.2863 2.40482 18.6902 0 25.5028 0ZM25.4999 13C19.7009 13 14.9999 17.701 14.9999 23.5C14.9999 29.299 19.7009 34 25.4999 34C31.2989 34 35.9999 29.299 35.9999 23.5C35.9999 17.701 31.2989 13 25.4999 13Z" fill="#DF2623"/>
<path d="M25.5028 0L25.5029 -0.8472H25.5028V0ZM43.5351 6.77051L42.9661 7.39823L42.9661 7.39827L43.5351 6.77051ZM45.9032 39.2939L45.2506 38.7537L45.24 38.7665L45.23 38.7797L45.9032 39.2939ZM28.1923 62.4795L28.8655 62.9938L28.8655 62.9938L28.1923 62.4795ZM22.8124 62.4795L22.1392 62.9938L22.1392 62.9938L22.8124 62.4795ZM5.0712 39.2559L5.74443 38.7416L5.73439 38.7284L5.72383 38.7157L5.0712 39.2559ZM7.46964 6.77051L8.03856 7.39826L8.0386 7.39823L7.46964 6.77051ZM25.5028 0L25.5028 0.8472C32.1147 0.847281 38.3134 3.18108 42.9661 7.39823L43.5351 6.77051L44.104 6.14278C39.1237 1.62871 32.5134 -0.847115 25.5029 -0.8472L25.5028 0ZM43.5351 6.77051L42.9661 7.39827C51.5453 15.1733 52.6136 29.8582 45.2506 38.7537L45.9032 39.2939L46.5559 39.8341C54.499 30.2377 53.352 14.524 44.104 6.14275L43.5351 6.77051ZM45.9032 39.2939L45.23 38.7797L27.519 61.9652L28.1923 62.4795L28.8655 62.9938L46.5765 39.8082L45.9032 39.2939ZM28.1923 62.4795L27.5191 61.9652C26.5035 63.2945 24.5012 63.2946 23.4856 61.9652L22.8124 62.4795L22.1392 62.9938C23.833 65.2109 27.1718 65.2109 28.8655 62.9938L28.1923 62.4795ZM22.8124 62.4795L23.4856 61.9652L5.74443 38.7416L5.0712 39.2559L4.39797 39.7702L22.1392 62.9938L22.8124 62.4795ZM5.0712 39.2559L5.72383 38.7157C-1.60767 29.8583 -0.541224 15.174 8.03856 7.39826L7.46964 6.77051L6.90071 6.14276C-2.34631 14.5232 -3.49446 30.2362 4.41857 39.7961L5.0712 39.2559ZM7.46964 6.77051L8.0386 7.39823C12.6914 3.18101 18.8895 0.8472 25.5028 0.8472V0V-0.8472C18.4909 -0.8472 11.8811 1.62863 6.90068 6.14278L7.46964 6.77051ZM25.4999 13V12.1528C19.233 12.1528 14.1527 17.2331 14.1527 23.5H14.9999H15.8471C15.8471 18.1689 20.1688 13.8472 25.4999 13.8472V13ZM14.9999 23.5H14.1527C14.1527 29.7669 19.233 34.8472 25.4999 34.8472V34V33.1528C20.1688 33.1528 15.8471 28.8311 15.8471 23.5H14.9999ZM25.4999 34V34.8472C31.7668 34.8472 36.8471 29.7669 36.8471 23.5H35.9999H35.1527C35.1527 28.8311 30.831 33.1528 25.4999 33.1528V34ZM35.9999 23.5H36.8471C36.8471 17.2331 31.7668 12.1528 25.4999 12.1528V13V13.8472C30.831 13.8472 35.1527 18.1689 35.1527 23.5H35.9999Z" fill="#DF2623" mask="url(#path-1-inside-1_264_90)"/>
</svg>
