<svg width="14" height="18" viewBox="0 0 14 18" fill="none" xmlns="http://www.w3.org/2000/svg">
<path d="M7.01014 0.00112422C7.21254 0.00815058 7.41493 0.0123664 7.61704 0.0238896C7.71144 0.0292297 7.80498 0.0503088 7.89909 0.061832C7.97762 0.0716689 8.0567 0.0767279 8.13551 0.0865648C8.18029 0.0921859 8.22423 0.103147 8.26845 0.112422C8.28404 0.115513 8.29907 0.122259 8.31466 0.123664C8.46631 0.137155 8.61145 0.182685 8.75942 0.213883C8.89577 0.24255 9.02729 0.2878 9.15996 0.328834C9.25662 0.358626 9.35413 0.387012 9.44938 0.421582C9.54009 0.454465 9.62824 0.494094 9.71754 0.530912C9.80059 0.565201 9.88393 0.598927 9.96642 0.634059C10.0053 0.650641 10.0441 0.668348 10.0812 0.688584C10.1541 0.72765 10.2258 0.768965 10.2981 0.808875C10.3372 0.830235 10.3777 0.849066 10.4163 0.871269C10.4996 0.919329 10.5821 0.968514 10.6643 1.01826C10.7202 1.05199 10.7757 1.08628 10.8299 1.12225C10.8931 1.16413 10.9552 1.20769 11.0164 1.2521C11.0785 1.29707 11.1411 1.34147 11.1995 1.39066C11.3594 1.52556 11.5204 1.65935 11.6749 1.80015C11.7809 1.89656 11.8776 2.00336 11.9765 2.10707C12.0462 2.18014 12.1145 2.2549 12.1806 2.33163C12.2378 2.39796 12.2923 2.46653 12.3453 2.53624C12.4323 2.65034 12.519 2.76501 12.6024 2.88193C12.6608 2.964 12.7132 3.05028 12.7674 3.13516C12.7974 3.18266 12.8241 3.23213 12.8544 3.27934C12.8978 3.34652 12.9363 3.41566 12.9703 3.48817C12.997 3.54466 13.0335 3.59665 13.0624 3.65202C13.105 3.73325 13.1449 3.81588 13.1852 3.89794C13.2203 3.96961 13.2558 4.041 13.2895 4.11351C13.3139 4.16607 13.3377 4.21891 13.3587 4.27287C13.3935 4.36253 13.4259 4.45331 13.459 4.54353C13.4945 4.63993 13.5293 4.73633 13.5648 4.83245C13.5679 4.84088 13.5741 4.84819 13.5764 4.85662C13.5991 4.93616 13.6206 5.01598 13.6436 5.09524C13.6654 5.17028 13.6903 5.24476 13.7116 5.3198C13.7207 5.35184 13.7221 5.38557 13.73 5.41789C13.7484 5.49405 13.7694 5.56966 13.7878 5.64554C13.8111 5.74138 13.8343 5.83722 13.8542 5.93362C13.863 5.97691 13.8618 6.02215 13.8683 6.066C13.8771 6.12586 13.8907 6.18517 13.8992 6.24503C13.9126 6.33778 13.9245 6.43081 13.9358 6.52384C13.9508 6.64863 13.9681 6.77313 13.9786 6.8982C13.9894 7.02608 13.9973 7.15452 13.9987 7.28297C14.0016 7.5168 13.9987 7.75064 13.9987 7.98448C13.9987 8.07273 13.988 8.15901 13.9715 8.24614C13.9483 8.36699 13.9369 8.48981 13.9191 8.61179C13.9146 8.64271 13.9046 8.6725 13.8981 8.70313C13.8854 8.76469 13.874 8.82624 13.8613 8.88779C13.8536 8.92461 13.8445 8.96114 13.8349 8.9974C13.8298 9.01679 13.821 9.03562 13.8159 9.05502C13.7836 9.18065 13.753 9.30684 13.719 9.43219C13.7068 9.47716 13.6849 9.51988 13.6708 9.56429C13.6382 9.66659 13.6107 9.77058 13.575 9.87176C13.5438 9.96001 13.5041 10.0455 13.4681 10.1323C13.4613 10.1489 13.4522 10.1655 13.4497 10.1829C13.4446 10.2186 13.4352 10.2517 13.4108 10.2796C13.4052 10.286 13.4026 10.2956 13.3992 10.3037C13.3658 10.3889 13.3343 10.4752 13.2983 10.5592C13.2694 10.6267 13.2345 10.6913 13.2036 10.7579C13.1699 10.831 13.1384 10.9049 13.105 10.978C13.0797 11.0328 13.0537 11.087 13.0259 11.1407C12.9919 11.2062 12.9553 11.2706 12.9204 11.3355C12.8941 11.385 12.8697 11.4355 12.8428 11.4845C12.7543 11.6444 12.6653 11.804 12.5763 11.9636C12.5207 12.0631 12.466 12.1632 12.4079 12.2613C12.375 12.3167 12.3359 12.3684 12.3008 12.4226C12.2741 12.4639 12.25 12.5066 12.2245 12.5485C12.169 12.6401 12.1143 12.7326 12.0567 12.8231C12.0292 12.8661 11.9949 12.9049 11.9657 12.9471C11.9087 13.0297 11.854 13.114 11.7973 13.1969C11.7608 13.2506 11.7219 13.3029 11.6845 13.356C11.6304 13.433 11.5774 13.5106 11.5227 13.587C11.4651 13.6671 11.4061 13.7458 11.3478 13.8254C11.2947 13.8976 11.242 13.9701 11.1882 14.0415C11.1233 14.1272 11.0575 14.2121 10.9917 14.2972C10.9452 14.3577 10.8987 14.4184 10.8514 14.478C10.7831 14.564 10.7151 14.65 10.645 14.7346C10.5342 14.8686 10.4222 15.0018 10.3097 15.1345C10.2051 15.2579 10.1002 15.381 9.99363 15.5027C9.92107 15.5853 9.8451 15.6651 9.77083 15.7461C9.68664 15.8377 9.60358 15.9305 9.51797 16.021C9.43804 16.1055 9.35526 16.1876 9.27363 16.2705C9.19794 16.347 9.12226 16.4234 9.046 16.4993C8.98732 16.5578 8.92836 16.6162 8.86827 16.6736C8.76112 16.7759 8.65453 16.8787 8.54483 16.9782C8.44704 17.067 8.34556 17.1519 8.24464 17.2374C8.15223 17.3158 8.0601 17.395 7.96486 17.4698C7.89286 17.5263 7.81519 17.576 7.74064 17.6294C7.69528 17.6617 7.65106 17.696 7.60542 17.7278C7.5612 17.7587 7.51585 17.7877 7.47078 17.8174C7.3863 17.8737 7.29559 17.9195 7.20148 17.9563C7.10425 17.9942 7.00306 18.0156 6.89619 17.9864C6.83269 17.9689 6.77486 17.9422 6.71477 17.9167C6.62293 17.8776 6.53874 17.8279 6.45681 17.773C6.36951 17.7146 6.28305 17.6544 6.19801 17.5929C6.12884 17.5429 6.06138 17.4903 5.99448 17.4372C5.91511 17.3742 5.8363 17.3107 5.7592 17.2449C5.64213 17.1454 5.52477 17.0462 5.41167 16.9422C5.29942 16.8394 5.19255 16.7309 5.08285 16.6252C5.03296 16.5772 4.98108 16.5308 4.93176 16.4819C4.84927 16.4001 4.76735 16.3172 4.68628 16.234C4.60634 16.1522 4.52612 16.0704 4.44845 15.9867C4.34782 15.8782 4.24974 15.7672 4.15053 15.6575C4.11027 15.6131 4.06832 15.5699 4.02835 15.5249C3.92744 15.4102 3.82709 15.295 3.72674 15.1798C3.62044 15.0581 3.51301 14.9375 3.40869 14.8144C3.35115 14.7466 3.29984 14.6739 3.24456 14.6042C3.136 14.467 3.02573 14.3313 2.91858 14.1933C2.84969 14.1047 2.78563 14.0123 2.71788 13.9229C2.649 13.8321 2.56935 13.7478 2.51123 13.6508C2.46078 13.5665 2.39615 13.4934 2.34541 13.4097C2.29552 13.3279 2.23485 13.2523 2.18071 13.173C2.11778 13.0806 2.05712 12.987 1.99532 12.8939C1.97293 12.8602 1.95025 12.827 1.92786 12.7933C1.8672 12.702 1.80484 12.6115 1.74644 12.5184C1.68946 12.4274 1.63759 12.3332 1.58231 12.241C1.5225 12.1418 1.45957 12.0446 1.40174 11.9443C1.34505 11.8459 1.29374 11.7441 1.23903 11.6447C1.20672 11.5859 1.17129 11.5286 1.13925 11.4698C1.11573 11.4266 1.09475 11.3821 1.07264 11.338C1.03494 11.2621 0.997237 11.186 0.959253 11.1104C0.928071 11.0485 0.895473 10.9873 0.865425 10.9252C0.831409 10.8546 0.798527 10.7835 0.766212 10.7118C0.72766 10.6261 0.689109 10.5401 0.652825 10.4533C0.617675 10.3695 0.58621 10.2843 0.55191 10.2003C0.516761 10.1132 0.47991 10.0266 0.444476 9.93949C0.435972 9.91898 0.429736 9.89734 0.423216 9.87598C0.421232 9.86979 0.424067 9.8622 0.422083 9.8563C0.386082 9.75372 0.349515 9.65113 0.313798 9.54855C0.303877 9.5196 0.295373 9.49009 0.287436 9.46058C0.278648 9.42797 0.271562 9.39509 0.262774 9.36277C0.243782 9.29363 0.224222 9.22505 0.20523 9.15591C0.199844 9.13652 0.198427 9.11516 0.189356 9.09745C0.155623 9.02972 0.150805 8.95552 0.137198 8.88329C0.128694 8.83945 0.113387 8.79701 0.103465 8.75344C0.0941111 8.71241 0.0864575 8.67053 0.0796543 8.62894C0.0629297 8.52719 0.0450713 8.42545 0.0311814 8.32343C0.0215435 8.25204 0.0138899 8.18009 0.0121891 8.10814C0.00623628 7.85941 0 7.61068 0 7.36222C0 7.19331 0.00623628 7.02383 0.0184254 6.8552C0.0272128 6.73491 0.051591 6.61574 0.0663313 6.49601C0.0751188 6.42491 0.07767 6.35324 0.0858905 6.28213C0.0901425 6.24447 0.101481 6.20793 0.107718 6.17055C0.122741 6.0823 0.136915 5.99405 0.151371 5.90608C0.155623 5.87994 0.159025 5.85352 0.164694 5.82767C0.185387 5.73126 0.206364 5.63514 0.228758 5.53902C0.235845 5.50867 0.25342 5.48028 0.257672 5.44965C0.276097 5.32064 0.318617 5.19782 0.356885 5.07472C0.390334 4.9668 0.409893 4.85381 0.460634 4.75066C0.483311 4.70485 0.494367 4.65398 0.511091 4.60536C0.527249 4.5587 0.54284 4.51205 0.560698 4.46596C0.581958 4.41199 0.605202 4.35916 0.62788 4.30576C0.675219 4.19474 0.719156 4.0826 0.770747 3.97355C0.826874 3.85438 0.889236 3.73774 0.950465 3.62083C1.00546 3.51571 1.06215 3.41144 1.11913 3.30745C1.14379 3.26276 1.1693 3.21807 1.19765 3.17564C1.2756 3.05928 1.35809 2.94545 1.43406 2.82769C1.5449 2.65597 1.68096 2.50363 1.80512 2.34203C1.85558 2.27626 1.91454 2.21696 1.97208 2.15681C2.09794 2.02528 2.22182 1.89178 2.35334 1.76615C2.45369 1.67003 2.56254 1.58262 2.67083 1.49521C2.80179 1.38981 2.93332 1.28498 3.06995 1.18689C3.18107 1.10735 3.29927 1.03709 3.4155 0.96486C3.48608 0.921016 3.5578 0.878576 3.63121 0.839229C3.74007 0.781051 3.84948 0.724278 3.96089 0.671158C4.0601 0.623941 4.16158 0.581221 4.26335 0.539063C4.40253 0.481446 4.54143 0.422706 4.68288 0.371835C4.78861 0.333893 4.8986 0.307755 5.00631 0.275715C5.04515 0.264191 5.08285 0.248733 5.12225 0.238615C5.17469 0.225125 5.22798 0.21585 5.28071 0.203765C5.32266 0.194209 5.36405 0.183529 5.406 0.173692C5.45221 0.163012 5.49841 0.152613 5.5449 0.143057C5.61803 0.128161 5.69117 0.112984 5.76459 0.100336C5.82241 0.0902185 5.88081 0.0829111 5.93892 0.0750416C6.06903 0.0578972 6.19886 0.036256 6.32954 0.025857C6.48544 0.0134906 6.6422 0.010399 6.79839 0.00534004C6.86869 0.0030916 6.93927 0.00505898 7.00957 0.00505898C7.00957 0.00337265 7.00957 0.00168633 7.00957 0L7.01014 0.00112422ZM3.94104 7.06908C3.96712 7.88302 4.31324 8.66322 5.03097 9.26862C5.64383 9.78548 6.36044 10.0213 7.15896 9.98081C7.96373 9.94005 8.65198 9.62218 9.21013 9.04152C9.77196 8.45721 10.0537 7.75176 10.0526 6.95188C10.0515 6.08877 9.72689 5.34285 9.09221 4.74813C8.51082 4.20345 7.80668 3.92577 7.00589 3.92605C5.30509 3.92661 3.95295 5.27174 3.94104 7.06908Z" fill="#DF2623"/>
</svg>
