<svg width="15" height="14" viewBox="0 0 15 14" fill="none" xmlns="http://www.w3.org/2000/svg">
<path d="M14.796 12.1039L11.8749 9.37799C11.743 9.25496 11.5643 9.1866 11.3768 9.1866H10.8992C11.7079 8.22146 12.1884 7.00752 12.1884 5.68694C12.1884 2.54545 9.46065 0 6.0942 0C2.72774 0 0 2.54545 0 5.68694C0 8.82843 2.72774 11.3739 6.0942 11.3739C7.50934 11.3739 8.81022 10.9255 9.84447 10.1709V10.6165C9.84447 10.7915 9.91772 10.9583 10.0496 11.0813L12.9707 13.8072C13.2461 14.0643 13.6914 14.0643 13.9639 13.8072L14.7931 13.0335C15.0685 12.7765 15.0685 12.3609 14.796 12.1039ZM6.0942 9.1866C4.02276 9.1866 2.34392 7.62269 2.34392 5.68694C2.34392 3.75393 4.01983 2.18729 6.0942 2.18729C8.16564 2.18729 9.84447 3.7512 9.84447 5.68694C9.84447 7.61996 8.16857 9.1866 6.0942 9.1866Z" fill="#DF2623"/>
</svg>
