<svg width="24" height="24" viewBox="0 0 24 24" fill="none" xmlns="http://www.w3.org/2000/svg">
<path d="M0 12C0 5.37258 5.37258 0 12 0C18.6274 0 24 5.37258 24 12C24 18.6274 18.6274 24 12 24C5.37258 24 0 18.6274 0 12Z" fill="#32A9E6"/>
<path d="M5.44323 11.9787C5.44323 11.9787 11.0454 9.63714 12.9883 8.81265C13.7331 8.48285 16.259 7.4275 16.259 7.4275C16.259 7.4275 17.4247 6.96579 17.3276 8.0871C17.2952 8.54881 17.0361 10.1648 16.7771 11.9127C16.3885 14.3862 15.9675 17.0906 15.9675 17.0906C15.9675 17.0906 15.9028 17.8491 15.3523 17.981C14.8018 18.1129 13.895 17.5193 13.7331 17.3874C13.6036 17.2884 11.3045 15.8043 10.4625 15.0788C10.2358 14.8809 9.97677 14.4852 10.4949 14.0234C11.6607 12.9351 13.0531 11.5829 13.895 10.7255C14.2836 10.3297 14.6722 9.40628 13.0531 10.5276C10.7539 12.1436 8.48718 13.6607 8.48718 13.6607C8.48718 13.6607 7.96906 13.9905 6.99759 13.6936C6.02611 13.3968 4.89273 13.0011 4.89273 13.0011C4.89273 13.0011 4.11555 12.5064 5.44323 11.9787Z" fill="#FFFDFD"/>
</svg>
