<svg width="36" height="26" viewBox="0 0 36 26" fill="none" xmlns="http://www.w3.org/2000/svg">
<path d="M7.875 24.5C7.875 23.6716 8.63052 23 9.5625 23H34.3125C35.2445 23 36 23.6716 36 24.5C36 25.3284 35.2445 26 34.3125 26H9.5625C8.63052 26 7.875 25.3284 7.875 24.5Z" fill="#DF2623"/>
<path d="M3.375 24.5C3.375 25.3284 2.61948 26 1.6875 26C0.755519 26 0 25.3284 0 24.5C0 23.6716 0.755519 23 1.6875 23C2.61948 23 3.375 23.6716 3.375 24.5Z" fill="#DF2623"/>
<path d="M7.875 11.5C7.875 10.6716 8.63052 10 9.5625 10H34.3125C35.2445 10 36 10.6716 36 11.5C36 12.3284 35.2445 13 34.3125 13H9.5625C8.63052 13 7.875 12.3284 7.875 11.5Z" fill="#DF2623"/>
<path d="M3.375 11.5C3.375 12.3284 2.61948 13 1.6875 13C0.755519 13 0 12.3284 0 11.5C0 10.6716 0.755519 10 1.6875 10C2.61948 10 3.375 10.6716 3.375 11.5Z" fill="#DF2623"/>
<path d="M7.875 1.5C7.875 0.671573 8.63052 0 9.5625 0H34.3125C35.2445 0 36 0.671573 36 1.5C36 2.32843 35.2445 3 34.3125 3H9.5625C8.63052 3 7.875 2.32843 7.875 1.5Z" fill="#DF2623"/>
<path d="M3.375 1.5C3.375 2.32843 2.61948 3 1.6875 3C0.755519 3 0 2.32843 0 1.5C0 0.671573 0.755519 0 1.6875 0C2.61948 0 3.375 0.671573 3.375 1.5Z" fill="#DF2623"/>
</svg>
