<svg width="13" height="14" viewBox="0 0 13 14" fill="none" xmlns="http://www.w3.org/2000/svg">
<path d="M11.5329 1.36517C11.1914 1.04582 9.81509 0.0247559 6.7498 0.0100493C6.7498 0.0100493 3.13318 -0.212652 1.37013 1.4387C0.388824 2.44085 0.0432075 3.90732 0.00823444 5.72675C-0.0287958 7.54618 -0.0761125 10.9518 3.14141 11.8762H3.14346L3.14141 13.286C3.14141 13.286 3.12084 13.8574 3.48908 13.973C3.93344 14.1138 4.19471 13.681 4.62056 13.2125C4.85303 12.9561 5.17602 12.578 5.41877 12.2901C7.61796 12.4792 9.31106 12.0464 9.50239 11.9834C9.94675 11.8363 12.4607 11.5065 12.868 8.10083C13.2898 4.59013 12.6623 2.36732 11.5329 1.36517ZM11.9052 7.84871C11.5596 10.6934 9.5209 10.8741 9.14648 10.9959C8.98602 11.0485 7.50069 11.4266 5.63272 11.3006C5.63272 11.3006 4.23997 13.015 3.8059 13.4625C3.73801 13.5318 3.65777 13.5612 3.60429 13.5465C3.53023 13.5276 3.50965 13.4373 3.50965 13.3049C3.51171 13.1158 3.522 10.9623 3.522 10.9623C3.51994 10.9623 3.51994 10.9623 3.522 10.9623C0.802328 10.1913 0.960736 7.28986 0.991594 5.77087C1.02245 4.25188 1.30224 3.00811 2.1313 2.17193C3.6228 0.793706 6.69426 0.999599 6.69426 0.999599C9.28843 1.01221 10.531 1.80847 10.819 2.07529C11.7736 2.91357 12.2611 4.91578 11.9052 7.84871Z" fill="#FFFDFD"/>
<path d="M8.00972 5.6508C7.97682 4.95578 7.63141 4.59253 6.97347 4.55683L8.00972 5.6508Z" fill="#FFFDFD"/>
<path d="M8.89904 5.95653C8.91344 5.30953 8.72626 4.76967 8.33544 4.33483C7.94462 3.89999 7.40364 3.65842 6.7084 3.608" fill="#FFFDFD"/>
<path d="M9.80995 6.31907C9.80172 5.19506 9.47256 4.31266 8.82453 3.66556C8.1765 3.02057 7.36801 2.69282 6.40316 2.68652" fill="#FFFDFD"/>
<path d="M7.00834 8.02181C7.00834 8.02181 7.25315 8.04282 7.38276 7.87684L7.63786 7.54909C7.76129 7.38522 8.05959 7.28227 8.35172 7.44825C8.51424 7.54279 8.80637 7.72557 8.9874 7.86214C9.18078 8.0071 9.57783 8.34536 9.57783 8.34536C9.7671 8.50713 9.8103 8.74664 9.68275 8.99875C9.68275 9.00085 9.68069 9.00295 9.68069 9.00295C9.54903 9.24036 9.37211 9.46516 9.14787 9.67316C9.14581 9.67526 9.14581 9.67526 9.14375 9.67736C8.96066 9.83283 8.77962 9.92317 8.6027 9.94418C8.58213 9.94838 8.55538 9.95048 8.52452 9.94838C8.44635 9.94838 8.37023 9.93788 8.29411 9.91267L8.28794 9.90426C8.01433 9.82653 7.55968 9.62904 6.80056 9.20255C6.30682 8.92522 5.89743 8.64159 5.55182 8.36006C5.36872 8.21299 5.18151 8.04492 4.99019 7.85163C4.98402 7.84533 4.97785 7.83903 4.97168 7.83272C4.9655 7.82642 4.95933 7.82012 4.95316 7.81381C4.94699 7.80751 4.94082 7.80121 4.93465 7.79491C4.92847 7.7886 4.9223 7.7823 4.91613 7.776C4.72687 7.58061 4.56229 7.38942 4.41828 7.20244C4.14261 6.84947 3.86488 6.42928 3.59333 5.92715C3.17571 5.1519 2.98233 4.68759 2.90621 4.40816L2.89798 4.40186C2.87329 4.32413 2.86095 4.24639 2.86301 4.16655C2.86095 4.13504 2.86301 4.10773 2.86712 4.08672C2.8877 3.90604 2.97616 3.72115 3.12839 3.53417C3.13045 3.53207 3.13045 3.53207 3.13251 3.52996C3.33617 3.30096 3.55424 3.12028 3.78876 2.98582C3.79082 2.98582 3.79288 2.98372 3.79288 2.98372C4.03975 2.85346 4.27427 2.89758 4.43268 3.09086C4.43474 3.09297 4.7639 3.49635 4.90584 3.69384C5.03957 3.88082 5.2206 4.17706 5.31112 4.34303C5.47364 4.64137 5.37284 4.94601 5.21237 5.07207L4.89144 5.33258C4.72892 5.46705 4.7495 5.71496 4.7495 5.71496C4.7495 5.71496 5.22677 7.5575 7.00834 8.02181Z" fill="#FFFDFD"/>
</svg>
