<svg width="24" height="24" viewBox="0 0 24 24" fill="none" xmlns="http://www.w3.org/2000/svg">
<path d="M0 12C0 5.37258 5.37258 0 12 0C18.6274 0 24 5.37258 24 12C24 18.6274 18.6274 24 12 24C5.37258 24 0 18.6274 0 12Z" fill="#7BE4AC"/>
<path d="M19.2 11.4249C19.2 15.0837 16.2112 18.0497 12.5236 18.0497C11.353 18.0497 10.2532 17.7505 9.29633 17.2254L5.6 18.4L6.80511 14.8456C6.19719 13.8473 5.84707 12.6765 5.84707 11.4249C5.84707 7.76601 8.8362 4.8 12.5236 4.8C16.2115 4.8 19.2 7.76601 19.2 11.4249ZM12.5236 5.85506C9.42825 5.85506 6.91044 8.35368 6.91044 11.4249C6.91044 12.6436 7.30771 13.7722 7.9797 14.6904L7.27839 16.7589L9.4355 16.0733C10.3218 16.6553 11.3835 16.9947 12.5238 16.9947C15.6187 16.9947 18.1369 14.4963 18.1369 11.4252C18.1369 8.35398 15.6188 5.85506 12.5236 5.85506ZM15.895 12.9506C15.8538 12.8831 15.7448 12.8423 15.5813 12.7611C15.4175 12.68 14.6127 12.287 14.4631 12.233C14.3131 12.1789 14.2037 12.1517 14.0947 12.3142C13.9858 12.4767 13.6721 12.8423 13.5764 12.9506C13.4809 13.0593 13.3855 13.0729 13.2217 12.9916C13.0582 12.9104 12.531 12.7388 11.9059 12.1857C11.4194 11.7553 11.0909 11.224 10.9954 11.0613C10.9001 10.8988 10.9854 10.811 11.0672 10.7302C11.1409 10.6574 11.231 10.5406 11.3128 10.4458C11.3948 10.3509 11.422 10.2834 11.4763 10.1749C11.5311 10.0665 11.5038 9.97178 11.4627 9.89033C11.4219 9.80918 11.0942 9.01011 10.9579 8.68492C10.8216 8.36003 10.6855 8.41413 10.5898 8.41413C10.4945 8.41413 10.3852 8.40053 10.2761 8.40053C10.167 8.40053 9.98963 8.44117 9.83957 8.60362C9.68967 8.76621 9.26701 9.1591 9.26701 9.95803C9.26701 10.7571 9.85317 11.5291 9.93523 11.6373C10.017 11.7455 11.067 13.4386 12.7308 14.0888C14.3947 14.7387 14.3947 14.5219 14.6948 14.4947C14.9946 14.4676 15.6628 14.1019 15.7997 13.723C15.9357 13.3434 15.9357 13.0183 15.895 12.9506Z" fill="#FFFDFD"/>
</svg>
